<?xml version="1.0" standalone="no"?>
<!DOCTYPE svg PUBLIC "-//W3C//DTD SVG 1.1//EN" "http://www.w3.org/Graphics/SVG/1.1/DTD/svg11.dtd" >
<svg xmlns="http://www.w3.org/2000/svg" xmlns:xlink="http://www.w3.org/1999/xlink" version="1.1">
<metadata>
Created by FontForge 20170731 at Thu Dec 27 00:42:56 2012
 By Aleksey,,,
Created by Nate Halley, generated by FontStruct. Licensed under Creative Commons Attribution ShareAlike (CC BY-SA) For more information, visit http://creativecommons.org/licenses/by-sa/3.0/
</metadata>
<defs>
<font id="Nine-By-Five-NBP" horiz-adv-x="384" >
  <font-face 
    font-family="Nine By Five NBP"
    font-weight="400"
    font-stretch="normal"
    units-per-em="1024"
    panose-1="0 0 4 0 0 0 0 0 0 0"
    ascent="819"
    descent="-205"
    x-height="384"
    cap-height="576"
    bbox="-128 -192 576 768"
    underline-thickness="51"
    underline-position="26"
    unicode-range="U+0020-FB02"
  />
<missing-glyph horiz-adv-x="128" 
d="M288 81v92h-92v-92h92zM379 188v92h-183v-92h183zM288 295v92h-92v-92h92zM379 402v91h-91q-39 0 -65 -26q-27 -27 -27 -65h183zM0 0v576h576v-576h-576z" />
    <glyph glyph-name=".notdef" horiz-adv-x="128" 
d="M288 81v92h-92v-92h92zM379 188v92h-183v-92h183zM288 295v92h-92v-92h92zM379 402v91h-91q-39 0 -65 -26q-27 -27 -27 -65h183zM0 0v576h576v-576h-576z" />
    <glyph glyph-name="glyph1" horiz-adv-x="0" 
 />
    <glyph glyph-name="glyph2" horiz-adv-x="128" 
 />
    <glyph glyph-name="space" unicode=" " horiz-adv-x="128" 
 />
    <glyph glyph-name="exclam" unicode="!" horiz-adv-x="128" 
d="M0 0v64h64v-64h-64zM0 192v384h64v-384h-64z" />
    <glyph glyph-name="quotedbl" unicode="&#x22;" horiz-adv-x="256" 
d="M0 448v192h64v-192h-64zM128 448v192h64v-192h-64z" />
    <glyph glyph-name="numbersign" unicode="#" horiz-adv-x="448" 
d="M256 192v128h-128v-128h128zM64 0v128h-64v64h64v128h-64v64h64v128h64v-128h128v128h64v-128h64v-64h-64v-128h64v-64h-64v-128h-64v128h-128v-128h-64z" />
    <glyph glyph-name="dollar" unicode="$" 
d="M128 0v64h-64v64h192v-64h-64v-64h-64zM0 128v64h64v-64h-64zM256 128v128h64v-128h-64zM64 256v64h192v-64h-192zM0 320v128h64v-128h-64zM256 384v64h64v-64h-64zM64 448v64h64v64h64v-64h64v-64h-192z" />
    <glyph glyph-name="percent" unicode="%" horiz-adv-x="512" 
d="M320 0v64h64v-64h-64zM64 0v128h64v-128h-64zM256 64v128h64v-128h-64zM384 64v128h64v-128h-64zM128 128v128h64v-128h-64zM320 192v64h64v-64h-64zM192 256v128h64v-128h-64zM64 384v64h64v-64h-64zM256 384v128h64v-128h-64zM0 448v128h64v-128h-64zM128 448v128h64
v-128h-64zM64 576v64h64v-64h-64zM320 512v128h64v-128h-64z" />
    <glyph glyph-name="ampersand" unicode="&#x26;" horiz-adv-x="512" 
d="M64 0v64h256v-64h-256zM384 0v64h64v-64h-64zM192 192v64h64v-64h-64zM0 64v256h64v-256h-64zM320 64v64h-64v64h64v128h64v-256h-64zM128 256v64h-64v64h128v-128h-64zM0 384v128h64v-128h-64zM192 384v128h64v-128h-64zM64 512v64h128v-64h-128z" />
    <glyph glyph-name="quotesingle" unicode="'" horiz-adv-x="192" 
d="M0 448v64h64v-64h-64zM64 512v64h-64v64h128v-128h-64z" />
    <glyph glyph-name="parenleft" unicode="(" horiz-adv-x="256" 
d="M128 -64v64h64v-64h-64zM64 0v64h64v-64h-64zM0 64v448h64v-448h-64zM64 512v64h64v-64h-64zM128 576v64h64v-64h-64z" />
    <glyph glyph-name="parenright" unicode=")" horiz-adv-x="256" 
d="M0 -64v64h64v-64h-64zM64 0v64h64v-64h-64zM128 64v448h64v-448h-64zM64 512v64h64v-64h-64zM0 576v64h64v-64h-64z" />
    <glyph glyph-name="asterisk" unicode="*" 
d="M64 256v64h64v-64h-64zM192 256v64h64v-64h-64zM128 320v64h64v-64h-64zM0 384v64h128v-64h-128zM192 384v64h128v-64h-128zM128 448v128h64v-128h-64z" />
    <glyph glyph-name="plus" unicode="+" 
d="M128 128v128h-128v64h128v128h64v-128h128v-64h-128v-128h-64z" />
    <glyph glyph-name="comma" unicode="," horiz-adv-x="192" 
d="M0 -128v64h64v-64h-64zM64 -64v64h-64v64h128v-128h-64z" />
    <glyph glyph-name="hyphen" unicode="-" 
d="M0 256v64h320v-64h-320z" />
    <glyph glyph-name="period" unicode="." horiz-adv-x="128" 
d="M0 0v64h64v-64h-64z" />
    <glyph glyph-name="slash" unicode="/" 
d="M0 0v128h64v-128h-64zM64 128v128h64v-128h-64zM128 256v128h64v-128h-64zM192 384v128h64v-128h-64zM256 512v128h64v-128h-64z" />
    <glyph glyph-name="zero" unicode="0" 
d="M64 0v64h192v-64h-192zM128 256v64h64v-64h-64zM0 64v448h64v-448h-64zM256 64v448h64v-448h-64zM64 512v64h192v-64h-192z" />
    <glyph glyph-name="one" unicode="1" horiz-adv-x="256" 
d="M0 0v64h64v384h-64v64h64v64h64v-512h64v-64h-192z" />
    <glyph glyph-name="two" unicode="2" 
d="M0 0v192h64v-128h256v-64h-320zM64 192v64h64v-64h-64zM128 256v64h64v-64h-64zM192 320v64h64v-64h-64zM256 384v128h64v-128h-64zM0 512v64h256v-64h-256z" />
    <glyph glyph-name="three" unicode="3" 
d="M0 0v64h256v-64h-256zM256 64v192h64v-192h-64zM64 256v64h192v-64h-192zM256 320v192h64v-192h-64zM0 512v64h256v-64h-256z" />
    <glyph glyph-name="four" unicode="4" 
d="M64 384v64h64v-64h-64zM192 0v256h-192v128h64v-64h128v128h-64v64h64v64h64v-256h64v-64h-64v-256h-64z" />
    <glyph glyph-name="five" unicode="5" 
d="M0 0v64h256v-64h-256zM256 64v192h64v-192h-64zM64 256v64h192v-64h-192zM0 320v256h320v-64h-256v-192h-64z" />
    <glyph glyph-name="six" unicode="6" 
d="M64 0v64h192v-64h-192zM256 64v192h64v-192h-64zM0 64v384h64v-128h192v-64h-192v-192h-64zM64 448v64h64v-64h-64zM128 512v64h128v-64h-128z" />
    <glyph glyph-name="seven" unicode="7" 
d="M64 0v128h64v-128h-64zM128 128v128h64v-128h-64zM192 256v128h64v-128h-64zM256 384v128h-256v64h320v-192h-64z" />
    <glyph glyph-name="eight" unicode="8" 
d="M64 0v64h192v-64h-192zM0 64v192h64v-192h-64zM256 64v192h64v-192h-64zM64 256v64h192v-64h-192zM0 320v192h64v-192h-64zM256 320v192h64v-192h-64zM64 512v64h192v-64h-192z" />
    <glyph glyph-name="nine" unicode="9" 
d="M64 0v64h128v-64h-128zM192 64v64h64v-64h-64zM0 320v192h64v-192h-64zM256 128v128h-192v64h192v192h64v-384h-64zM64 512v64h192v-64h-192z" />
    <glyph glyph-name="colon" unicode=":" horiz-adv-x="128" 
d="M0 64v64h64v-64h-64zM0 320v64h64v-64h-64z" />
    <glyph glyph-name="semicolon" unicode=";" horiz-adv-x="192" 
d="M0 -64v64h64v-64h-64zM64 0v64h-64v64h128v-128h-64zM0 320v64h64v-64h-64z" />
    <glyph glyph-name="less" unicode="&#x3c;" horiz-adv-x="320" 
d="M192 64v64h64v-64h-64zM128 128v64h64v-64h-64zM64 192v64h64v-64h-64zM0 256v64h64v-64h-64zM64 320v64h64v-64h-64zM128 384v64h64v-64h-64zM192 448v64h64v-64h-64z" />
    <glyph glyph-name="equal" unicode="=" 
d="M0 192v64h320v-64h-320zM0 320v64h320v-64h-320z" />
    <glyph glyph-name="greater" unicode="&#x3e;" horiz-adv-x="320" 
d="M0 64v64h64v-64h-64zM64 128v64h64v-64h-64zM128 192v64h64v-64h-64zM192 256v64h64v-64h-64zM128 320v64h64v-64h-64zM64 384v64h64v-64h-64zM0 448v64h64v-64h-64z" />
    <glyph glyph-name="question" unicode="?" 
d="M128 0v64h64v-64h-64zM128 192v128h64v-128h-64zM192 320v64h64v-64h-64zM256 384v128h64v-128h-64zM0 512v64h256v-64h-256z" />
    <glyph glyph-name="at" unicode="@" horiz-adv-x="512" 
d="M128 0v64h320v-64h-320zM64 64v64h64v-64h-64zM128 192v64h64v-64h-64zM0 128v192h64v-192h-64zM192 128v64h64v64h-64v64h128v-128h64v-64h-192zM64 320v64h64v-64h-64zM384 192v192h64v-192h-64zM128 384v64h256v-64h-256z" />
    <glyph glyph-name="A" unicode="A" 
d="M0 0v512h64v-192h192v192h64v-512h-64v256h-192v-256h-64zM64 512v64h192v-64h-192z" />
    <glyph glyph-name="B" unicode="B" 
d="M256 64v192h64v-192h-64zM256 320v192h64v-192h-64zM0 0v576h256v-64h-192v-192h192v-64h-192v-192h192v-64h-256z" />
    <glyph glyph-name="C" unicode="C" 
d="M64 0v64h256v-64h-256zM0 64v448h64v-448h-64zM64 512v64h256v-64h-256z" />
    <glyph glyph-name="D" unicode="D" 
d="M256 64v448h64v-448h-64zM0 0v576h256v-64h-192v-448h192v-64h-256z" />
    <glyph glyph-name="E" unicode="E" 
d="M0 0v576h320v-64h-256v-192h192v-64h-192v-192h256v-64h-320z" />
    <glyph glyph-name="F" unicode="F" 
d="M0 0v576h320v-64h-256v-192h192v-64h-192v-256h-64z" />
    <glyph glyph-name="G" unicode="G" 
d="M64 0v64h192v256h64v-320h-256zM0 64v448h64v-448h-64zM64 512v64h256v-64h-256z" />
    <glyph glyph-name="H" unicode="H" 
d="M0 0v576h64v-256h192v256h64v-576h-64v256h-192v-256h-64z" />
    <glyph glyph-name="I" unicode="I" horiz-adv-x="128" 
d="M0 0v576h64v-576h-64z" />
    <glyph glyph-name="J" unicode="J" horiz-adv-x="320" 
d="M0 0v64h192v-64h-192zM192 64v512h64v-512h-64z" />
    <glyph glyph-name="K" unicode="K" 
d="M256 0v128h64v-128h-64zM192 128v128h64v-128h-64zM128 256v64h64v-64h-64zM192 320v128h64v-128h-64zM0 0v576h64v-576h-64zM256 448v128h64v-128h-64z" />
    <glyph glyph-name="L" unicode="L" 
d="M64 0v64h256v-64h-256zM0 64v512h64v-512h-64z" />
    <glyph glyph-name="M" unicode="M" horiz-adv-x="448" 
d="M128 320v64h128v-64h-128zM0 0v576h64v-64h64v-128h-64v-384h-64zM320 0v384h-64v128h64v64h64v-576h-64z" />
    <glyph glyph-name="N" unicode="N" 
d="M128 256v128h64v-128h-64zM0 0v576h64v-64h64v-128h-64v-384h-64zM256 0v128h-64v128h64v320h64v-576h-64z" />
    <glyph glyph-name="O" unicode="O" 
d="M64 0v64h192v-64h-192zM0 64v448h64v-448h-64zM256 64v448h64v-448h-64zM64 512v64h192v-64h-192z" />
    <glyph glyph-name="P" unicode="P" 
d="M256 320v192h64v-192h-64zM0 0v576h256v-64h-192v-192h192v-64h-192v-256h-64z" />
    <glyph glyph-name="Q" unicode="Q" horiz-adv-x="448" 
d="M0 64v448h64v-448h-64zM64 0v64h192v448h64v-448h64v-64h-320zM64 512v64h192v-64h-192z" />
    <glyph glyph-name="R" unicode="R" 
d="M256 0v192h64v-192h-64zM256 320v192h64v-192h-64zM0 0v576h256v-64h-192v-192h192v-128h-64v64h-128v-256h-64z" />
    <glyph glyph-name="S" unicode="S" 
d="M0 0v64h256v-64h-256zM256 64v192h64v-192h-64zM64 256v64h192v-64h-192zM0 320v192h64v-192h-64zM64 512v64h256v-64h-256z" />
    <glyph glyph-name="T" unicode="T" 
d="M128 0v512h-128v64h320v-64h-128v-512h-64z" />
    <glyph glyph-name="U" unicode="U" 
d="M64 0v64h192v-64h-192zM0 64v512h64v-512h-64zM256 64v512h64v-512h-64z" />
    <glyph glyph-name="V" unicode="V" 
d="M128 0v64h64v-64h-64zM64 64v128h64v-128h-64zM192 64v128h64v-128h-64zM0 192v384h64v-384h-64zM256 192v384h64v-384h-64z" />
    <glyph glyph-name="W" unicode="W" 
d="M64 0v128h64v-128h-64zM192 0v128h64v-128h-64zM128 128v192h64v-192h-64zM0 128v448h64v-448h-64zM256 128v448h64v-448h-64z" />
    <glyph glyph-name="X" unicode="X" 
d="M0 0v128h64v-128h-64zM256 0v128h64v-128h-64zM64 128v128h64v-128h-64zM192 128v128h64v-128h-64zM128 256v64h64v-64h-64zM64 320v128h64v-128h-64zM192 320v128h64v-128h-64zM0 448v128h64v-128h-64zM256 448v128h64v-128h-64z" />
    <glyph glyph-name="Y" unicode="Y" 
d="M128 0v320h64v-320h-64zM64 320v128h64v-128h-64zM192 320v128h64v-128h-64zM0 448v128h64v-128h-64zM256 448v128h64v-128h-64z" />
    <glyph glyph-name="Z" unicode="Z" 
d="M0 0v192h64v-128h256v-64h-320zM64 192v64h64v-64h-64zM128 256v64h64v-64h-64zM192 320v64h64v-64h-64zM256 384v128h-256v64h320v-192h-64z" />
    <glyph glyph-name="bracketleft" unicode="[" horiz-adv-x="192" 
d="M0 -64v704h128v-64h-64v-576h64v-64h-128z" />
    <glyph glyph-name="backslash" unicode="\" 
d="M256 0v128h64v-128h-64zM192 128v128h64v-128h-64zM128 256v128h64v-128h-64zM64 384v128h64v-128h-64zM0 512v128h64v-128h-64z" />
    <glyph glyph-name="bracketright" unicode="]" horiz-adv-x="192" 
d="M0 -64v64h64v576h-64v64h128v-704h-128z" />
    <glyph glyph-name="asciicircum" unicode="^" 
d="M0 448v64h64v-64h-64zM256 448v64h64v-64h-64zM64 512v64h64v-64h-64zM192 512v64h64v-64h-64zM128 576v64h64v-64h-64z" />
    <glyph glyph-name="underscore" unicode="_" horiz-adv-x="448" 
d="M0 0v64h384v-64h-384z" />
    <glyph glyph-name="grave" unicode="`" horiz-adv-x="192" 
d="M64 512v64h64v-64h-64zM0 576v64h64v-64h-64z" />
    <glyph glyph-name="a" unicode="a" 
d="M64 0v64h192v-64h-192zM0 64v128h64v-128h-64zM256 64v128h-192v64h192v64h64v-256h-64zM64 320v64h192v-64h-192z" />
    <glyph glyph-name="b" unicode="b" 
d="M256 64v256h64v-256h-64zM0 0v576h64v-192h192v-64h-192v-256h192v-64h-256z" />
    <glyph glyph-name="c" unicode="c" 
d="M64 0v64h256v-64h-256zM0 64v256h64v-256h-64zM64 320v64h256v-64h-256z" />
    <glyph glyph-name="d" unicode="d" 
d="M0 64v256h64v-256h-64zM64 0v64h192v256h-192v64h192v192h64v-576h-256z" />
    <glyph glyph-name="e" unicode="e" 
d="M64 0v64h256v-64h-256zM0 64v256h64v-64h192v64h64v-128h-256v-128h-64zM64 320v64h192v-64h-192z" />
    <glyph glyph-name="f" unicode="f" horiz-adv-x="320" 
d="M64 0v320h-64v64h64v128h64v-128h128v-64h-128v-320h-64zM128 512v64h128v-64h-128z" />
    <glyph glyph-name="g" unicode="g" 
d="M64 -128v64h192v-64h-192zM0 128v192h64v-192h-64zM256 -64v128h-192v64h192v192h64v-384h-64zM64 320v64h192v-64h-192z" />
    <glyph glyph-name="h" unicode="h" 
d="M256 0v320h64v-320h-64zM0 0v576h64v-192h192v-64h-192v-320h-64z" />
    <glyph glyph-name="i" unicode="i" horiz-adv-x="192" 
d="M64 0v320h-64v64h128v-384h-64zM64 512v64h64v-64h-64z" />
    <glyph glyph-name="j" unicode="j" horiz-adv-x="256" 
d="M0 -128v64h128v-64h-128zM128 -64v384h-64v64h128v-448h-64zM128 512v64h64v-64h-64z" />
    <glyph glyph-name="k" unicode="k" 
d="M256 0v64h64v-64h-64zM192 64v64h64v-64h-64zM128 128v64h64v-64h-64zM128 256v64h64v-64h-64zM192 320v64h64v-64h-64zM0 0v576h64v-320h64v-64h-64v-192h-64z" />
    <glyph glyph-name="l" unicode="l" horiz-adv-x="192" 
d="M64 0v512h-64v64h128v-576h-64z" />
    <glyph glyph-name="m" unicode="m" 
d="M128 64v256h64v-256h-64zM256 0v320h64v-320h-64zM0 0v384h128v-64h-64v-320h-64zM192 320v64h64v-64h-64z" />
    <glyph glyph-name="n" unicode="n" 
d="M256 0v320h64v-320h-64zM0 0v384h256v-64h-192v-320h-64z" />
    <glyph glyph-name="o" unicode="o" 
d="M64 0v64h192v-64h-192zM0 64v256h64v-256h-64zM256 64v256h64v-256h-64zM64 320v64h192v-64h-192z" />
    <glyph glyph-name="p" unicode="p" 
d="M256 128v192h64v-192h-64zM0 -128v512h256v-64h-192v-192h192v-64h-192v-192h-64z" />
    <glyph glyph-name="q" unicode="q" 
d="M0 128v192h64v-192h-64zM256 -128v192h-192v64h192v192h64v-448h-64zM64 320v64h192v-64h-192z" />
    <glyph glyph-name="r" unicode="r" 
d="M256 256v64h64v-64h-64zM0 0v384h256v-64h-192v-320h-64z" />
    <glyph glyph-name="s" unicode="s" 
d="M0 0v64h256v-64h-256zM256 64v128h64v-128h-64zM64 192v64h192v-64h-192zM0 256v64h64v-64h-64zM64 320v64h256v-64h-256z" />
    <glyph glyph-name="t" unicode="t" horiz-adv-x="320" 
d="M128 0v64h128v-64h-128zM64 64v256h-64v64h64v192h64v-192h128v-64h-128v-256h-64z" />
    <glyph glyph-name="u" unicode="u" 
d="M0 64v320h64v-320h-64zM64 0v64h192v320h64v-384h-256z" />
    <glyph glyph-name="v" unicode="v" 
d="M128 0v64h64v-64h-64zM64 64v128h64v-128h-64zM192 64v128h64v-128h-64zM0 192v192h64v-192h-64zM256 192v192h64v-192h-64z" />
    <glyph glyph-name="w" unicode="w" 
d="M64 0v128h64v-128h-64zM192 0v128h64v-128h-64zM128 128v192h64v-192h-64zM0 128v256h64v-256h-64zM256 128v256h64v-256h-64z" />
    <glyph glyph-name="x" unicode="x" 
d="M0 0v128h64v-128h-64zM256 0v128h64v-128h-64zM64 128v64h64v-64h-64zM192 128v64h64v-64h-64zM128 192v64h64v-64h-64zM64 256v64h64v-64h-64zM192 256v64h64v-64h-64zM0 320v64h64v-64h-64zM256 320v64h64v-64h-64z" />
    <glyph glyph-name="y" unicode="y" 
d="M64 -128v64h192v-64h-192zM0 128v256h64v-256h-64zM256 -64v128h-192v64h192v256h64v-448h-64z" />
    <glyph glyph-name="z" unicode="z" 
d="M0 0v128h64v-64h256v-64h-320zM64 128v64h64v-64h-64zM128 192v64h128v-64h-128zM256 256v64h-256v64h320v-128h-64z" />
    <glyph glyph-name="braceleft" unicode="{" horiz-adv-x="320" 
d="M128 -64v128h64v-64h64v-64h-128zM64 64v192h64v-192h-64zM0 256v64h64v-64h-64zM64 320v192h64v-192h-64zM128 512v128h128v-64h-64v-64h-64z" />
    <glyph glyph-name="bar" unicode="|" horiz-adv-x="128" 
d="M0 -64v704h64v-704h-64z" />
    <glyph glyph-name="braceright" unicode="}" horiz-adv-x="320" 
d="M0 -64v64h64v64h64v-128h-128zM128 64v192h64v-192h-64zM192 256v64h64v-64h-64zM128 320v192h64v-192h-64zM64 512v64h-64v64h128v-128h-64z" />
    <glyph glyph-name="asciitilde" unicode="~" horiz-adv-x="512" 
d="M256 192v64h128v-64h-128zM0 256v64h64v-64h-64zM192 256v64h64v-64h-64zM384 256v64h64v-64h-64zM64 320v64h128v-64h-128z" />
    <glyph glyph-name="exclamdown" unicode="&#xa1;" horiz-adv-x="128" 
d="M0 -64v384h64v-384h-64zM0 448v64h64v-64h-64z" />
    <glyph glyph-name="cent" unicode="&#xa2;" 
d="M128 64v64h-64v64h192v-64h-64v-64h-64zM0 192v192h64v-192h-64zM256 320v64h64v-64h-64zM64 384v64h64v64h64v-64h64v-64h-192z" />
    <glyph glyph-name="sterling" unicode="&#xa3;" 
d="M0 0v64h64v256h-64v64h64v128h64v-128h64v-64h-64v-256h192v-64h-320zM128 512v64h128v-64h-128z" />
    <glyph glyph-name="currency" unicode="&#xa4;" 
d="M0 64v64h64v-64h-64zM256 64v64h64v-64h-64zM64 128v64h192v-64h-192zM0 192v192h64v-192h-64zM256 192v192h64v-192h-64zM64 384v64h192v-64h-192zM0 448v64h64v-64h-64zM256 448v64h64v-64h-64z" />
    <glyph glyph-name="yen" unicode="&#xa5;" 
d="M128 0v192h-64v64h64v64h64v-64h64v-64h-64v-192h-64zM64 320v128h64v-128h-64zM192 320v128h64v-128h-64zM0 448v128h64v-128h-64zM256 448v128h64v-128h-64z" />
    <glyph glyph-name="brokenbar" unicode="&#xa6;" horiz-adv-x="128" 
d="M0 -64v256h64v-256h-64zM0 384v256h64v-256h-64z" />
    <glyph glyph-name="section" unicode="&#xa7;" 
d="M0 0v64h256v-64h-256zM256 64v128h64v-128h-64zM64 192v64h192v-64h-192zM0 256v64h64v-64h-64zM256 256v64h64v-64h-64zM64 320v64h192v-64h-192zM0 384v128h64v-128h-64zM64 512v64h256v-64h-256z" />
    <glyph glyph-name="dieresis" unicode="&#xa8;" horiz-adv-x="256" 
d="M0 576v64h64v-64h-64zM128 576v64h64v-64h-64z" />
    <glyph glyph-name="copyright" unicode="&#xa9;" 
d="M0 0v64h64v-64h-64zM256 0v64h64v-64h-64zM64 64v64h64v-64h-64zM192 64v64h64v-64h-64zM128 128v64h64v-64h-64zM64 192v64h64v-64h-64zM192 192v64h64v-64h-64zM0 256v64h64v-64h-64zM256 256v64h64v-64h-64zM128 448v64h-64v-64h64zM256 448v64h-64v-64h64zM0 384v192
h320v-192h-320z" />
    <glyph glyph-name="ordfeminine" unicode="&#xaa;" horiz-adv-x="256" 
d="M0 384v64h64v-64h-64zM64 320v64h64v64h-64v64h64v64h64v-256h-128zM64 576v64h64v-64h-64z" />
    <glyph glyph-name="guillemotleft" unicode="&#xab;" horiz-adv-x="448" 
d="M128 64v64h64v-64h-64zM320 64v64h64v-64h-64zM64 128v64h64v-64h-64zM256 128v64h64v-64h-64zM0 192v64h64v-64h-64zM192 192v64h64v-64h-64zM64 256v64h64v-64h-64zM256 256v64h64v-64h-64zM128 320v64h64v-64h-64zM320 320v64h64v-64h-64z" />
    <glyph glyph-name="logicalnot" unicode="&#xac;" 
d="M256 192v64h-256v64h320v-128h-64z" />
    <glyph glyph-name="sfthyphen" unicode="&#xad;" horiz-adv-x="256" 
d="M0 256v64h192v-64h-192z" />
    <glyph glyph-name="registered" unicode="&#xae;" horiz-adv-x="576" 
d="M0 64v64h512v-64h-512zM64 192v64h384v-64h-384zM128 320v64h256v-64h-256zM192 448v64h128v-64h-128z" />
    <glyph glyph-name="macron" unicode="&#xaf;" 
d="M0 576v64h320v-64h-320z" />
    <glyph glyph-name="degree" unicode="&#xb0;" horiz-adv-x="320" 
d="M64 384v64h128v-64h-128zM0 448v128h64v-128h-64zM192 448v128h64v-128h-64zM64 576v64h128v-64h-128z" />
    <glyph glyph-name="plusminus" unicode="&#xb1;" 
d="M0 128v64h320v-64h-320zM128 256v64h-128v64h128v64h64v-64h128v-64h-128v-64h-64z" />
    <glyph glyph-name="twosuperior" unicode="&#xb2;" horiz-adv-x="256" 
d="M0 320v128h64v-64h128v-64h-192zM64 448v64h64v-64h-64zM128 512v64h64v-64h-64zM0 576v64h128v-64h-128z" />
    <glyph glyph-name="threesuperior" unicode="&#xb3;" horiz-adv-x="256" 
d="M0 320v64h128v-64h-128zM128 384v64h64v-64h-64zM0 448v64h128v-64h-128zM128 512v64h64v-64h-64zM0 576v64h128v-64h-128z" />
    <glyph glyph-name="acute" unicode="&#xb4;" horiz-adv-x="192" 
d="M0 512v64h64v-64h-64zM64 576v64h64v-64h-64z" />
    <glyph glyph-name="mu" unicode="&#xb5;" 
d="M0 -192v576h64v-320h192v-64h-192v-192h-64zM256 64v320h64v-320h-64z" />
    <glyph glyph-name="paragraph" unicode="&#xb6;" 
d="M128 0v256h-64v64h-64v192h64v64h256v-576h-64v512h-64v-512h-64z" />
    <glyph glyph-name="periodcentered" unicode="&#xb7;" horiz-adv-x="128" 
d="M0 256v64h64v-64h-64z" />
    <glyph glyph-name="cedilla" unicode="&#xb8;" horiz-adv-x="256" 
d="M0 -128v64h128v-64h-128zM128 -64v64h64v-64h-64zM64 0v64h64v-64h-64z" />
    <glyph glyph-name="onesuperior" unicode="&#xb9;" horiz-adv-x="192" 
d="M64 320v192h-64v64h64v64h64v-320h-64z" />
    <glyph glyph-name="ordmasculine" unicode="&#xba;" horiz-adv-x="256" 
d="M64 320v64h64v-64h-64zM0 384v192h64v-192h-64zM128 384v192h64v-192h-64zM64 576v64h64v-64h-64z" />
    <glyph glyph-name="guillemotright" unicode="&#xbb;" horiz-adv-x="448" 
d="M0 64v64h64v-64h-64zM192 64v64h64v-64h-64zM64 128v64h64v-64h-64zM256 128v64h64v-64h-64zM128 192v64h64v-64h-64zM320 192v64h64v-64h-64zM64 256v64h64v-64h-64zM256 256v64h64v-64h-64zM0 320v64h64v-64h-64zM192 320v64h64v-64h-64z" />
    <glyph glyph-name="onequarter" unicode="&#xbc;" horiz-adv-x="448" 
d="M320 0v128h-128v192h64v-128h64v128h64v-320h-64zM64 320v192h-64v64h64v64h64v-320h-64z" />
    <glyph glyph-name="onehalf" unicode="&#xbd;" horiz-adv-x="448" 
d="M192 0v128h64v-64h128v-64h-192zM256 128v64h64v-64h-64zM320 192v64h64v-64h-64zM192 256v64h128v-64h-128zM64 320v192h-64v64h64v64h64v-320h-64z" />
    <glyph glyph-name="threequarters" unicode="&#xbe;" horiz-adv-x="448" 
d="M320 0v128h-128v192h64v-128h64v128h64v-320h-64zM0 320v64h128v-64h-128zM128 384v64h64v-64h-64zM0 448v64h128v-64h-128zM128 512v64h64v-64h-64zM0 576v64h128v-64h-128z" />
    <glyph glyph-name="questiondown" unicode="&#xbf;" 
d="M64 -64v64h256v-64h-256zM0 0v128h64v-128h-64zM64 128v64h64v-64h-64zM128 192v128h64v-128h-64zM128 448v64h64v-64h-64z" />
    <glyph glyph-name="Agrave" unicode="&#xc0;" 
d="M0 0v512h64v-192h192v192h64v-512h-64v256h-192v-256h-64zM64 512v64h192v-64h-192zM128 640v64h64v-64h-64zM0 704v64h128v-64h-128z" />
    <glyph glyph-name="Aacute" unicode="&#xc1;" 
d="M0 0v512h64v-192h192v192h64v-512h-64v256h-192v-256h-64zM64 512v64h192v-64h-192zM128 640v64h64v-64h-64zM192 704v64h128v-64h-128z" />
    <glyph glyph-name="Acircumflex" unicode="&#xc2;" 
d="M0 0v512h64v-192h192v192h64v-512h-64v256h-192v-256h-64zM64 512v64h192v-64h-192zM0 576v64h64v-64h-64zM256 576v64h64v-64h-64zM64 640v64h64v-64h-64zM192 640v64h64v-64h-64zM128 704v64h64v-64h-64z" />
    <glyph glyph-name="Atilde" unicode="&#xc3;" 
d="M0 0v512h64v-192h192v192h64v-512h-64v256h-192v-256h-64zM64 512v64h128v64h64v-128h-192zM0 640v64h64v-64h-64zM128 640v64h64v-64h-64zM256 640v64h64v-64h-64zM64 704v64h64v-64h-64z" />
    <glyph glyph-name="Adieresis" unicode="&#xc4;" 
d="M0 0v512h64v-192h192v192h64v-512h-64v256h-192v-256h-64zM64 512v64h192v-64h-192zM64 640v64h64v-64h-64zM192 640v64h64v-64h-64z" />
    <glyph glyph-name="Aring" unicode="&#xc5;" 
d="M0 0v512h64v-192h192v192h64v-512h-64v256h-192v-256h-64zM64 512v64h64v64h64v-64h64v-64h-192zM64 640v64h64v-64h-64zM192 640v64h64v-64h-64zM128 704v64h64v-64h-64z" />
    <glyph glyph-name="AE" unicode="&#xc6;" 
d="M0 0v512h64v-192h64v192h-64v64h256v-64h-128v-192h128v-64h-128v-192h128v-64h-192v256h-64v-256h-64z" />
    <glyph glyph-name="Ccedilla" unicode="&#xc7;" 
d="M64 -192v64h128v-64h-128zM192 -128v64h64v-64h-64zM128 -64v64h-64v64h256v-64h-128v-64h-64zM0 64v448h64v-448h-64zM64 512v64h256v-64h-256z" />
    <glyph glyph-name="Egrave" unicode="&#xc8;" 
d="M0 0v576h320v-64h-256v-192h192v-64h-192v-192h256v-64h-320zM128 640v64h64v-64h-64zM0 704v64h128v-64h-128z" />
    <glyph glyph-name="Eacute" unicode="&#xc9;" 
d="M0 0v576h320v-64h-256v-192h192v-64h-192v-192h256v-64h-320zM128 640v64h64v-64h-64zM192 704v64h128v-64h-128z" />
    <glyph glyph-name="Ecircumflex" unicode="&#xca;" 
d="M0 0v640h64v-64h192v64h64v-128h-256v-192h192v-64h-192v-192h256v-64h-320zM64 640v64h64v-64h-64zM192 640v64h64v-64h-64zM128 704v64h64v-64h-64z" />
    <glyph glyph-name="Edieresis" unicode="&#xcb;" 
d="M0 0v576h320v-64h-256v-192h192v-64h-192v-192h256v-64h-320zM64 640v64h64v-64h-64zM192 640v64h64v-64h-64z" />
    <glyph glyph-name="Igrave" unicode="&#xcc;" horiz-adv-x="192" 
d="M0 0v576h64v-576h-64zM64 640v64h64v-64h-64zM-64 704v64h128v-64h-128z" />
    <glyph glyph-name="Iacute" unicode="&#xcd;" horiz-adv-x="192" 
d="M0 0v576h64v-576h-64zM-64 640v64h64v-64h-64zM0 704v64h128v-64h-128z" />
    <glyph glyph-name="Icircumflex" unicode="&#xce;" horiz-adv-x="256" 
d="M0 0v576h64v-576h-64zM-128 576v64h64v-64h-64zM128 576v64h64v-64h-64zM-64 640v64h64v-64h-64zM64 640v64h64v-64h-64zM0 704v64h64v-64h-64z" />
    <glyph glyph-name="Idieresis" unicode="&#xcf;" horiz-adv-x="192" 
d="M0 0v576h64v-576h-64zM-64 640v64h64v-64h-64zM64 640v64h64v-64h-64z" />
    <glyph glyph-name="Eth" unicode="&#xd0;" 
d="M256 64v448h64v-448h-64zM0 0v576h256v-64h-192v-192h128v-64h-128v-192h192v-64h-256z" />
    <glyph glyph-name="Ntilde" unicode="&#xd1;" 
d="M128 256v128h64v-128h-64zM0 0v576h64v-64h64v-128h-64v-384h-64zM256 0v128h-64v128h64v320h64v-576h-64zM192 576v64h64v-64h-64zM0 640v64h64v-64h-64zM128 640v64h64v-64h-64zM256 640v64h64v-64h-64zM64 704v64h64v-64h-64z" />
    <glyph glyph-name="Ograve" unicode="&#xd2;" 
d="M64 0v64h192v-64h-192zM0 64v448h64v-448h-64zM256 64v448h64v-448h-64zM64 512v64h192v-64h-192zM128 640v64h64v-64h-64zM0 704v64h128v-64h-128z" />
    <glyph glyph-name="Oacute" unicode="&#xd3;" 
d="M64 0v64h192v-64h-192zM0 64v448h64v-448h-64zM256 64v448h64v-448h-64zM64 512v64h192v-64h-192zM128 640v64h64v-64h-64zM192 704v64h128v-64h-128z" />
    <glyph glyph-name="Ocircumflex" unicode="&#xd4;" 
d="M64 0v64h192v-64h-192zM0 64v448h64v-448h-64zM256 64v448h64v-448h-64zM64 512v64h192v-64h-192zM0 576v64h64v-64h-64zM256 576v64h64v-64h-64zM64 640v64h64v-64h-64zM192 640v64h64v-64h-64zM128 704v64h64v-64h-64z" />
    <glyph glyph-name="Otilde" unicode="&#xd5;" 
d="M64 0v64h192v-64h-192zM0 64v448h64v-448h-64zM256 64v448h64v-448h-64zM64 512v64h128v64h64v-128h-192zM0 640v64h64v-64h-64zM128 640v64h64v-64h-64zM256 640v64h64v-64h-64zM64 704v64h64v-64h-64z" />
    <glyph glyph-name="Odieresis" unicode="&#xd6;" 
d="M64 0v64h192v-64h-192zM0 64v448h64v-448h-64zM256 64v448h64v-448h-64zM64 512v64h192v-64h-192zM64 640v64h64v-64h-64zM192 640v64h64v-64h-64z" />
    <glyph glyph-name="multiply" unicode="&#xd7;" 
d="M0 128v64h64v-64h-64zM256 128v64h64v-64h-64zM64 192v64h64v-64h-64zM192 192v64h64v-64h-64zM128 256v64h64v-64h-64zM64 320v64h64v-64h-64zM192 320v64h64v-64h-64zM0 384v64h64v-64h-64zM256 384v64h64v-64h-64z" />
    <glyph glyph-name="Oslash" unicode="&#xd8;" horiz-adv-x="448" 
d="M64 0v64h192v-64h-192zM128 256v64h64v-64h-64zM-64 64v64h64v384h64v-256h64v-64h-64v-128h-128zM256 64v256h-64v64h64v128h128v-64h-64v-384h-64zM64 512v64h192v-64h-192z" />
    <glyph glyph-name="Ugrave" unicode="&#xd9;" 
d="M64 0v64h192v-64h-192zM0 64v512h64v-512h-64zM256 64v512h64v-512h-64zM128 640v64h64v-64h-64zM0 704v64h128v-64h-128z" />
    <glyph glyph-name="Uacute" unicode="&#xda;" 
d="M64 0v64h192v-64h-192zM0 64v512h64v-512h-64zM256 64v512h64v-512h-64zM128 640v64h64v-64h-64zM192 704v64h128v-64h-128z" />
    <glyph glyph-name="Ucircumflex" unicode="&#xdb;" 
d="M64 0v64h192v-64h-192zM0 64v576h64v-576h-64zM256 64v576h64v-576h-64zM64 640v64h64v-64h-64zM192 640v64h64v-64h-64zM128 704v64h64v-64h-64z" />
    <glyph glyph-name="Udieresis" unicode="&#xdc;" 
d="M64 0v64h192v-64h-192zM0 64v512h64v-512h-64zM256 64v512h64v-512h-64zM64 640v64h64v-64h-64zM192 640v64h64v-64h-64z" />
    <glyph glyph-name="Yacute" unicode="&#xdd;" 
d="M128 0v320h64v-320h-64zM64 320v128h64v-128h-64zM192 320v128h64v-128h-64zM0 448v128h64v-128h-64zM256 448v128h64v-128h-64zM128 640v64h64v-64h-64zM192 704v64h128v-64h-128z" />
    <glyph glyph-name="Thorn" unicode="&#xde;" 
d="M256 192v192h64v-192h-64zM0 0v576h64v-128h192v-64h-192v-192h192v-64h-192v-128h-64z" />
    <glyph glyph-name="germandbls" unicode="&#xdf;" 
d="M128 0v64h128v-64h-128zM256 64v192h64v-192h-64zM192 256v64h64v-64h-64zM128 320v128h64v-128h-64zM0 0v512h64v-512h-64zM192 448v64h128v-64h-128zM64 512v64h128v-64h-128z" />
    <glyph glyph-name="agrave" unicode="&#xe0;" 
d="M64 0v64h192v-64h-192zM0 64v128h64v-128h-64zM256 64v128h-192v64h192v64h64v-256h-64zM64 320v64h192v-64h-192zM128 448v64h64v-64h-64zM0 512v64h128v-64h-128z" />
    <glyph glyph-name="aacute" unicode="&#xe1;" 
d="M64 0v64h192v-64h-192zM0 64v128h64v-128h-64zM256 64v128h-192v64h192v64h64v-256h-64zM64 320v64h192v-64h-192zM128 448v64h64v-64h-64zM192 512v64h128v-64h-128z" />
    <glyph glyph-name="acircumflex" unicode="&#xe2;" 
d="M64 0v64h192v-64h-192zM0 64v128h64v-128h-64zM256 64v128h-192v64h192v64h64v-256h-64zM64 320v64h192v-64h-192zM0 448v64h64v-64h-64zM256 448v64h64v-64h-64zM64 512v64h64v-64h-64zM192 512v64h64v-64h-64zM128 576v64h64v-64h-64z" />
    <glyph glyph-name="atilde" unicode="&#xe3;" 
d="M64 0v64h192v-64h-192zM0 64v128h64v-128h-64zM256 64v128h-192v64h192v64h64v-256h-64zM64 320v64h128v64h64v-128h-192zM0 448v64h64v-64h-64zM128 448v64h64v-64h-64zM256 448v64h64v-64h-64zM64 512v64h64v-64h-64z" />
    <glyph glyph-name="adieresis" unicode="&#xe4;" 
d="M64 0v64h192v-64h-192zM0 64v128h64v-128h-64zM256 64v128h-192v64h192v64h64v-256h-64zM64 320v64h192v-64h-192zM64 448v64h64v-64h-64zM192 448v64h64v-64h-64z" />
    <glyph glyph-name="aring" unicode="&#xe5;" 
d="M64 0v64h192v-64h-192zM0 64v128h64v-128h-64zM256 64v128h-192v64h192v64h64v-256h-64zM64 320v64h64v64h64v-64h64v-64h-192zM64 448v64h64v-64h-64zM192 448v64h64v-64h-64zM128 512v64h64v-64h-64z" />
    <glyph glyph-name="ae" unicode="&#xe6;" horiz-adv-x="512" 
d="M64 0v64h128v-64h-128zM256 0v64h192v-64h-192zM0 64v128h64v-128h-64zM192 64v128h-128v64h128v64h64v-64h128v64h64v-128h-192v-128h-64zM64 320v64h128v-64h-128zM256 320v64h128v-64h-128z" />
    <glyph glyph-name="ccedilla" unicode="&#xe7;" 
d="M64 -192v64h128v-64h-128zM192 -128v64h64v-64h-64zM128 -64v64h-64v64h256v-64h-128v-64h-64zM0 64v256h64v-256h-64zM64 320v64h256v-64h-256z" />
    <glyph glyph-name="egrave" unicode="&#xe8;" 
d="M64 0v64h256v-64h-256zM0 64v256h64v-64h192v64h64v-128h-256v-128h-64zM64 320v64h192v-64h-192zM128 448v64h64v-64h-64zM0 512v64h128v-64h-128z" />
    <glyph glyph-name="eacute" unicode="&#xe9;" 
d="M64 0v64h256v-64h-256zM0 64v256h64v-64h192v64h64v-128h-256v-128h-64zM64 320v64h192v-64h-192zM128 448v64h64v-64h-64zM192 512v64h128v-64h-128z" />
    <glyph glyph-name="ecircumflex" unicode="&#xea;" 
d="M64 0v64h256v-64h-256zM0 64v256h64v-64h192v64h64v-128h-256v-128h-64zM64 320v64h192v-64h-192zM0 448v64h64v-64h-64zM256 448v64h64v-64h-64zM64 512v64h64v-64h-64zM192 512v64h64v-64h-64zM128 576v64h64v-64h-64z" />
    <glyph glyph-name="edieresis" unicode="&#xeb;" 
d="M64 0v64h256v-64h-256zM0 64v256h64v-64h192v64h64v-128h-256v-128h-64zM64 320v64h192v-64h-192zM64 448v64h64v-64h-64zM192 448v64h64v-64h-64z" />
    <glyph glyph-name="igrave" unicode="&#xec;" horiz-adv-x="192" 
d="M64 0v320h-64v64h128v-384h-64zM64 448v64h64v-64h-64zM-64 512v64h128v-64h-128z" />
    <glyph glyph-name="iacute" unicode="&#xed;" horiz-adv-x="256" 
d="M64 0v320h-64v64h128v-384h-64zM0 448v64h64v-64h-64zM64 512v64h128v-64h-128z" />
    <glyph glyph-name="icircumflex" unicode="&#xee;" horiz-adv-x="320" 
d="M64 0v320h-64v64h128v-384h-64zM-64 448v64h64v-64h-64zM192 448v64h64v-64h-64zM0 512v64h64v-64h-64zM128 512v64h64v-64h-64zM64 576v64h64v-64h-64z" />
    <glyph glyph-name="idieresis" unicode="&#xef;" horiz-adv-x="256" 
d="M64 0v320h-64v64h128v-384h-64zM0 512v64h64v-64h-64zM128 512v64h64v-64h-64z" />
    <glyph glyph-name="eth" unicode="&#xf0;" 
d="M256 64v256h64v-256h-64zM0 0v384h256v-64h-192v-64h128v-64h-128v-128h192v-64h-256z" />
    <glyph glyph-name="ntilde" unicode="&#xf1;" 
d="M256 0v320h64v-320h-64zM0 0v384h192v64h64v-128h-192v-320h-64zM0 448v64h64v-64h-64zM128 448v64h64v-64h-64zM256 448v64h64v-64h-64zM64 512v64h64v-64h-64z" />
    <glyph glyph-name="ograve" unicode="&#xf2;" 
d="M64 0v64h192v-64h-192zM0 64v256h64v-256h-64zM256 64v256h64v-256h-64zM64 320v64h192v-64h-192zM128 448v64h64v-64h-64zM0 512v64h128v-64h-128z" />
    <glyph glyph-name="oacute" unicode="&#xf3;" 
d="M64 0v64h192v-64h-192zM0 64v256h64v-256h-64zM256 64v256h64v-256h-64zM64 320v64h192v-64h-192zM128 448v64h64v-64h-64zM192 512v64h128v-64h-128z" />
    <glyph glyph-name="ocircumflex" unicode="&#xf4;" 
d="M64 0v64h192v-64h-192zM0 64v256h64v-256h-64zM256 64v256h64v-256h-64zM64 320v64h192v-64h-192zM0 448v64h64v-64h-64zM256 448v64h64v-64h-64zM64 512v64h64v-64h-64zM192 512v64h64v-64h-64zM128 576v64h64v-64h-64z" />
    <glyph glyph-name="otilde" unicode="&#xf5;" 
d="M64 0v64h192v-64h-192zM0 64v256h64v-256h-64zM256 64v256h64v-256h-64zM64 320v64h128v64h64v-128h-192zM0 448v64h64v-64h-64zM128 448v64h64v-64h-64zM256 448v64h64v-64h-64zM64 512v64h64v-64h-64z" />
    <glyph glyph-name="odieresis" unicode="&#xf6;" 
d="M64 0v64h192v-64h-192zM0 64v256h64v-256h-64zM256 64v256h64v-256h-64zM64 320v64h192v-64h-192zM64 448v64h64v-64h-64zM192 448v64h64v-64h-64z" />
    <glyph glyph-name="divide" unicode="&#xf7;" 
d="M128 128v64h64v-64h-64zM0 256v64h320v-64h-320zM128 384v64h64v-64h-64z" />
    <glyph glyph-name="oslash" unicode="&#xf8;" 
d="M64 0v64h192v-64h-192zM0 64v256h64v-256h-64zM256 64v256h64v-256h-64zM64 320v64h192v-64h-192z" />
    <glyph glyph-name="ugrave" unicode="&#xf9;" 
d="M0 64v320h64v-320h-64zM64 0v64h192v320h64v-384h-256zM128 448v64h64v-64h-64zM0 512v64h128v-64h-128z" />
    <glyph glyph-name="uacute" unicode="&#xfa;" 
d="M0 64v320h64v-320h-64zM64 0v64h192v320h64v-384h-256zM128 448v64h64v-64h-64zM192 512v64h128v-64h-128z" />
    <glyph glyph-name="ucircumflex" unicode="&#xfb;" 
d="M0 64v320h64v-320h-64zM64 0v64h192v320h64v-384h-256zM0 448v64h64v-64h-64zM256 448v64h64v-64h-64zM64 512v64h64v-64h-64zM192 512v64h64v-64h-64zM128 576v64h64v-64h-64z" />
    <glyph glyph-name="udieresis" unicode="&#xfc;" 
d="M0 64v320h64v-320h-64zM64 0v64h192v320h64v-384h-256zM64 448v64h64v-64h-64zM192 448v64h64v-64h-64z" />
    <glyph glyph-name="yacute" unicode="&#xfd;" 
d="M128 448v64h64v-64h-64zM192 512v64h128v-64h-128z" />
    <glyph glyph-name="thorn" unicode="&#xfe;" horiz-adv-x="320" 
d="M192 128v128h64v-128h-64zM0 0v384h64v-64h128v-64h-128v-128h128v-64h-128v-64h-64z" />
    <glyph glyph-name="ydieresis" unicode="&#xff;" 
d="M64 -128v64h192v-64h-192zM0 128v256h64v-256h-64zM256 -64v128h-192v64h192v256h64v-448h-64zM64 448v64h64v-64h-64zM192 448v64h64v-64h-64z" />
    <glyph glyph-name="Uring" unicode="&#x16e;" 
d="M64 0v64h192v-64h-192zM0 64v512h64v-512h-64zM256 64v512h64v-512h-64z" />
    <glyph glyph-name="uring" unicode="&#x16f;" 
d="M0 64v320h64v-320h-64zM64 0v64h192v320h64v-384h-256z" />
    <glyph glyph-name="Ydieresis" unicode="&#x178;" 
d="M128 0v320h64v-320h-64zM64 320v128h64v-128h-64zM192 320v128h64v-128h-64zM0 448v128h64v-128h-64zM256 448v128h64v-128h-64zM64 640v64h64v-64h-64zM192 640v64h64v-64h-64z" />
    <glyph glyph-name="numeralsigngreek" unicode="&#x374;" horiz-adv-x="128" 
d="M0 384v192h64v-192h-64z" />
    <glyph glyph-name="numeralsignlowergreek" unicode="&#x375;" horiz-adv-x="128" 
d="M0 0v192h64v-192h-64z" />
    <glyph glyph-name="ypogegrammeni" unicode="&#x37a;" horiz-adv-x="192" 
d="M64 0v64h64v-64h-64zM0 64v128h64v-128h-64z" />
    <glyph glyph-name="questiongreek" unicode="&#x37e;" horiz-adv-x="192" 
d="M0 -64v64h64v-64h-64zM64 0v64h-64v64h128v-128h-64zM0 320v64h64v-64h-64z" />
    <glyph glyph-name="tonos" unicode="&#x384;" horiz-adv-x="128" 
d="M0 448v128h64v-128h-64z" />
    <glyph glyph-name="dialytikatonos" unicode="&#x385;" 
d="M0 448v64h64v-64h-64zM256 448v64h64v-64h-64zM128 448v128h64v-128h-64z" />
    <glyph glyph-name="Alphatonos" unicode="&#x386;" horiz-adv-x="448" 
d="M64 0v512h64v-192h192v192h64v-512h-64v256h-192v-256h-64zM128 512v64h192v-64h-192zM0 512v128h64v-128h-64z" />
    <glyph glyph-name="Epsilontonos" unicode="&#x388;" horiz-adv-x="448" 
d="M64 0v512h-64v128h64v-64h320v-64h-256v-192h192v-64h-192v-192h256v-64h-320z" />
    <glyph glyph-name="Etatonos" unicode="&#x389;" horiz-adv-x="448" 
d="M64 0v512h-64v128h64v-64h64v-256h192v256h64v-576h-64v256h-192v-256h-64z" />
    <glyph glyph-name="Iotatonos" unicode="&#x38a;" horiz-adv-x="256" 
d="M128 0v576h64v-576h-64zM0 512v128h64v-128h-64z" />
    <glyph glyph-name="Omicrontonos" unicode="&#x38c;" horiz-adv-x="448" 
d="M128 0v64h192v-64h-192zM64 64v448h64v-448h-64zM320 64v448h64v-448h-64zM128 512v64h192v-64h-192zM0 512v128h64v-128h-64z" />
    <glyph glyph-name="Upsilontonos" unicode="&#x38e;" horiz-adv-x="448" 
d="M192 0v320h64v-320h-64zM128 320v128h64v-128h-64zM256 320v128h64v-128h-64zM320 448v128h64v-128h-64zM64 448v64h-64v128h64v-64h64v-128h-64z" />
    <glyph glyph-name="Omegatonos" unicode="&#x38f;" horiz-adv-x="448" 
d="M64 0v64h64v64h64v-128h-128zM256 0v128h64v-64h64v-64h-128zM64 128v384h64v-384h-64zM320 128v384h64v-384h-64zM128 512v64h192v-64h-192zM0 512v128h64v-128h-64z" />
    <glyph glyph-name="iotadieresistonos" unicode="&#x390;" 
d="M128 0v384h64v-384h-64zM0 448v64h64v-64h-64zM256 448v64h64v-64h-64zM128 448v128h64v-128h-64z" />
    <glyph glyph-name="Alpha" unicode="&#x391;" 
d="M0 0v512h64v-192h192v192h64v-512h-64v256h-192v-256h-64zM64 512v64h192v-64h-192z" />
    <glyph glyph-name="Beta" unicode="&#x392;" 
d="M256 64v192h64v-192h-64zM256 320v192h64v-192h-64zM0 0v576h256v-64h-192v-192h192v-64h-192v-192h192v-64h-256z" />
    <glyph glyph-name="Gamma" unicode="&#x393;" horiz-adv-x="320" 
d="M0 0v576h256v-64h-192v-512h-64z" />
    <glyph glyph-name="Deltagreek" unicode="&#x394;" horiz-adv-x="512" 
d="M0 0v192h64v-128h320v128h64v-192h-448zM64 192v128h64v-128h-64zM320 192v128h64v-128h-64zM128 320v128h64v-128h-64zM256 320v128h64v-128h-64zM192 448v128h64v-128h-64z" />
    <glyph glyph-name="Epsilon" unicode="&#x395;" 
d="M0 0v576h320v-64h-256v-192h192v-64h-192v-192h256v-64h-320z" />
    <glyph glyph-name="Zeta" unicode="&#x396;" 
d="M0 0v192h64v-128h256v-64h-320zM64 192v64h64v-64h-64zM128 256v64h64v-64h-64zM192 320v64h64v-64h-64zM256 384v128h-256v64h320v-192h-64z" />
    <glyph glyph-name="Eta" unicode="&#x397;" 
d="M0 0v576h64v-256h192v256h64v-576h-64v256h-192v-256h-64z" />
    <glyph glyph-name="Theta" unicode="&#x398;" 
d="M64 0v64h192v-64h-192zM128 256v64h64v-64h-64zM0 64v448h64v-448h-64zM256 64v448h64v-448h-64zM64 512v64h192v-64h-192z" />
    <glyph glyph-name="Iota" unicode="&#x399;" horiz-adv-x="128" 
d="M0 0v576h64v-576h-64z" />
    <glyph glyph-name="Kappa" unicode="&#x39a;" 
d="M256 0v128h64v-128h-64zM192 128v128h64v-128h-64zM128 256v64h64v-64h-64zM192 320v128h64v-128h-64zM0 0v576h64v-576h-64zM256 448v128h64v-128h-64z" />
    <glyph glyph-name="Lambda" unicode="&#x39b;" horiz-adv-x="512" 
d="M0 0v192h64v-192h-64zM384 0v192h64v-192h-64zM64 192v128h64v-128h-64zM320 192v128h64v-128h-64zM128 320v128h64v-128h-64zM256 320v128h64v-128h-64zM192 448v128h64v-128h-64z" />
    <glyph glyph-name="Mu" unicode="&#x39c;" horiz-adv-x="448" 
d="M128 384v64h128v-64h-128zM0 0v576h64v-64h64v-64h-64v-448h-64zM320 0v448h-64v64h64v64h64v-576h-64z" />
    <glyph glyph-name="Nu" unicode="&#x39d;" 
d="M128 256v128h64v-128h-64zM0 0v576h64v-64h64v-128h-64v-384h-64zM256 0v128h-64v128h64v320h64v-576h-64z" />
    <glyph glyph-name="Xi" unicode="&#x39e;" 
d="M0 0v64h320v-64h-320zM0 256v64h320v-64h-320zM0 512v64h320v-64h-320z" />
    <glyph glyph-name="Omicron" unicode="&#x39f;" 
d="M64 0v64h192v-64h-192zM0 64v448h64v-448h-64zM256 64v448h64v-448h-64zM64 512v64h192v-64h-192z" />
    <glyph glyph-name="Pi" unicode="&#x3a0;" 
d="M0 0v576h320v-576h-64v512h-192v-512h-64z" />
    <glyph glyph-name="Rho" unicode="&#x3a1;" 
d="M256 320v192h64v-192h-64zM0 0v576h256v-64h-192v-192h192v-64h-192v-256h-64z" />
    <glyph glyph-name="Sigma" unicode="&#x3a3;" 
d="M0 0v128h64v-64h256v-64h-320zM64 128v64h64v-64h-64zM128 192v64h64v-64h-64zM192 256v64h64v-64h-64zM128 320v64h64v-64h-64zM64 384v64h64v-64h-64zM0 448v128h320v-64h-256v-64h-64z" />
    <glyph glyph-name="Tau" unicode="&#x3a4;" 
d="M128 0v512h-128v64h320v-64h-128v-512h-64z" />
    <glyph glyph-name="Upsilon" unicode="&#x3a5;" 
d="M128 0v320h64v-320h-64zM64 320v128h64v-128h-64zM192 320v128h64v-128h-64zM0 448v128h64v-128h-64zM256 448v128h64v-128h-64z" />
    <glyph glyph-name="Phi" unicode="&#x3a6;" 
d="M0 192v192h64v-192h-64zM256 192v192h64v-192h-64zM128 0v128h-64v64h64v192h-64v64h64v128h64v-128h64v-64h-64v-192h64v-64h-64v-128h-64z" />
    <glyph glyph-name="Chi" unicode="&#x3a7;" 
d="M0 0v128h64v-128h-64zM256 0v128h64v-128h-64zM64 128v128h64v-128h-64zM192 128v128h64v-128h-64zM128 256v64h64v-64h-64zM64 320v128h64v-128h-64zM192 320v128h64v-128h-64zM0 448v128h64v-128h-64zM256 448v128h64v-128h-64z" />
    <glyph glyph-name="Psi" unicode="&#x3a8;" 
d="M0 320v256h64v-256h-64zM128 0v256h-64v64h64v256h64v-256h64v-64h-64v-256h-64zM256 320v256h64v-256h-64z" />
    <glyph glyph-name="Omega" unicode="&#x3a9;" 
d="M0 0v64h64v64h64v-128h-128zM192 0v128h64v-64h64v-64h-128zM0 128v384h64v-384h-64zM256 128v384h64v-384h-64zM64 512v64h192v-64h-192z" />
    <glyph glyph-name="Iotadieresis" unicode="&#x3aa;" horiz-adv-x="256" 
d="M64 0v576h64v-576h-64zM0 640v64h64v-64h-64zM128 640v64h64v-64h-64z" />
    <glyph glyph-name="Upsilondieresis" unicode="&#x3ab;" 
d="M128 0v320h64v-320h-64zM64 320v128h64v-128h-64zM192 320v128h64v-128h-64zM0 448v128h64v-128h-64zM256 448v128h64v-128h-64zM64 640v64h64v-64h-64zM192 640v64h64v-64h-64z" />
    <glyph glyph-name="alphatonos" unicode="&#x3ac;" 
d="M0 0v320h64v-128h192v128h64v-320h-64v128h-192v-128h-64zM64 320v64h192v-64h-192zM128 448v128h64v-128h-64z" />
    <glyph glyph-name="epsilontonos" unicode="&#x3ad;" 
d="M0 0v128h64v-64h256v-64h-320zM64 128v64h64v-64h-64zM128 192v64h128v-64h-128zM64 256v64h-64v64h320v-64h-192v-64h-64zM128 448v128h64v-128h-64z" />
    <glyph glyph-name="etatonos" unicode="&#x3ae;" 
d="M0 0v384h64v-128h192v128h64v-384h-64v192h-192v-192h-64zM128 448v128h64v-128h-64z" />
    <glyph glyph-name="iotatonos" unicode="&#x3af;" horiz-adv-x="128" 
d="M0 0v384h64v-384h-64zM0 448v128h64v-128h-64z" />
    <glyph glyph-name="upsilondieresistonos" unicode="&#x3b0;" 
d="M128 0v256h64v-256h-64zM64 256v64h64v-64h-64zM192 256v64h64v-64h-64zM0 320v64h64v-64h-64zM256 320v64h64v-64h-64zM0 448v64h64v-64h-64zM256 448v64h64v-64h-64zM128 448v128h64v-128h-64z" />
    <glyph glyph-name="alpha" unicode="&#x3b1;" 
d="M0 0v320h64v-128h192v128h64v-320h-64v128h-192v-128h-64zM64 320v64h192v-64h-192z" />
    <glyph glyph-name="beta" unicode="&#x3b2;" 
d="M256 64v128h64v-128h-64zM256 256v64h64v-64h-64zM0 0v384h256v-64h-192v-64h192v-64h-192v-128h192v-64h-256z" />
    <glyph glyph-name="gamma" unicode="&#x3b3;" horiz-adv-x="320" 
d="M0 0v384h256v-64h-192v-320h-64z" />
    <glyph glyph-name="delta" unicode="&#x3b4;" 
d="M0 0v128h64v-64h192v64h64v-128h-320zM64 128v128h64v-128h-64zM192 128v128h64v-128h-64zM128 256v128h64v-128h-64z" />
    <glyph glyph-name="epsilon" unicode="&#x3b5;" 
d="M0 0v128h64v-64h256v-64h-320zM64 128v64h64v-64h-64zM128 192v64h128v-64h-128zM64 256v64h-64v64h320v-64h-192v-64h-64z" />
    <glyph glyph-name="zeta" unicode="&#x3b6;" 
d="M0 0v128h64v-64h256v-64h-320zM64 128v64h64v-64h-64zM128 192v64h128v-64h-128zM256 256v64h-256v64h320v-128h-64z" />
    <glyph glyph-name="eta" unicode="&#x3b7;" 
d="M0 0v384h64v-128h192v128h64v-384h-64v192h-192v-192h-64z" />
    <glyph glyph-name="theta" unicode="&#x3b8;" 
d="M64 0v64h192v-64h-192zM128 128v128h64v-128h-64zM0 64v256h64v-256h-64zM256 64v256h64v-256h-64zM64 320v64h192v-64h-192z" />
    <glyph glyph-name="iota" unicode="&#x3b9;" horiz-adv-x="128" 
d="M0 0v384h64v-384h-64z" />
    <glyph glyph-name="kappa" unicode="&#x3ba;" horiz-adv-x="320" 
d="M192 0v128h64v-128h-64zM128 128v64h64v-64h-64zM128 256v64h64v-64h-64zM0 0v384h64v-128h64v-64h-64v-192h-64zM192 320v64h64v-64h-64z" />
    <glyph glyph-name="lambda" unicode="&#x3bb;" 
d="M0 0v128h64v-128h-64zM256 0v128h64v-128h-64zM64 128v128h64v-128h-64zM192 128v128h64v-128h-64zM128 256v128h64v-128h-64z" />
    <glyph glyph-name="mugreek" unicode="&#x3bc;" horiz-adv-x="448" 
d="M128 192v64h128v-64h-128zM0 0v384h64v-64h64v-64h-64v-256h-64zM320 0v256h-64v64h64v64h64v-384h-64z" />
    <glyph glyph-name="nu" unicode="&#x3bd;" 
d="M128 192v64h64v-64h-64zM0 0v384h64v-64h64v-64h-64v-256h-64zM256 0v128h-64v64h64v192h64v-384h-64z" />
    <glyph glyph-name="xi" unicode="&#x3be;" 
d="M0 0v64h320v-64h-320zM0 192v64h320v-64h-320zM0 320v64h320v-64h-320z" />
    <glyph glyph-name="omicron" unicode="&#x3bf;" 
d="M64 0v64h192v-64h-192zM0 64v256h64v-256h-64zM256 64v256h64v-256h-64zM64 320v64h192v-64h-192z" />
    <glyph glyph-name="pi" unicode="&#x3c0;" horiz-adv-x="448" 
d="M320 0v64h64v-64h-64zM64 0v320h-64v64h384v-64h-64v-256h-64v256h-128v-320h-64z" />
    <glyph glyph-name="rho" unicode="&#x3c1;" 
d="M256 192v128h64v-128h-64zM0 0v384h256v-64h-192v-128h192v-64h-192v-128h-64z" />
    <glyph glyph-name="sigma1" unicode="&#x3c2;" 
d="M128 -128v64h128v-64h-128zM256 -64v64h64v-64h-64zM64 0v64h192v-64h-192zM0 64v256h64v-256h-64zM64 320v64h192v-64h-192z" />
    <glyph glyph-name="sigma" unicode="&#x3c3;" 
d="M0 0v128h64v-64h256v-64h-320zM64 128v128h192v-64h-128v-64h-64zM0 256v128h320v-64h-256v-64h-64z" />
    <glyph glyph-name="tau" unicode="&#x3c4;" 
d="M128 0v320h-128v64h320v-64h-128v-320h-64z" />
    <glyph glyph-name="upsilon" unicode="&#x3c5;" 
d="M128 0v256h64v-256h-64zM64 256v64h64v-64h-64zM192 256v64h64v-64h-64zM0 320v64h64v-64h-64zM256 320v64h64v-64h-64z" />
    <glyph glyph-name="phi" unicode="&#x3c6;" 
d="M0 128v128h64v-128h-64zM256 128v128h64v-128h-64zM128 0v64h-64v64h64v128h-64v64h64v64h64v-64h64v-64h-64v-128h64v-64h-64v-64h-64z" />
    <glyph glyph-name="chi" unicode="&#x3c7;" 
d="M0 0v128h64v-128h-64zM256 0v128h64v-128h-64zM64 128v64h64v-64h-64zM192 128v64h64v-64h-64zM128 192v64h64v-64h-64zM64 256v64h64v-64h-64zM192 256v64h64v-64h-64zM0 320v64h64v-64h-64zM256 320v64h64v-64h-64z" />
    <glyph glyph-name="psi" unicode="&#x3c8;" 
d="M0 192v192h64v-192h-64zM128 0v128h-64v64h64v192h64v-192h64v-64h-64v-128h-64zM256 192v192h64v-192h-64z" />
    <glyph glyph-name="omega" unicode="&#x3c9;" 
d="M0 0v64h64v64h64v-128h-128zM192 0v128h64v-64h64v-64h-128zM0 128v192h64v-192h-64zM256 128v192h64v-192h-64zM64 320v64h192v-64h-192z" />
    <glyph glyph-name="iotadieresis" unicode="&#x3ca;" horiz-adv-x="256" 
d="M64 0v384h64v-384h-64zM0 448v64h64v-64h-64zM128 448v64h64v-64h-64z" />
    <glyph glyph-name="upsilondieresis" unicode="&#x3cb;" 
d="M128 0v256h64v-256h-64zM64 256v64h64v-64h-64zM192 256v64h64v-64h-64zM0 320v64h64v-64h-64zM256 320v64h64v-64h-64zM64 448v64h64v-64h-64zM192 448v64h64v-64h-64z" />
    <glyph glyph-name="omicrontonos" unicode="&#x3cc;" 
d="M64 0v64h192v-64h-192zM0 64v256h64v-256h-64zM256 64v256h64v-256h-64zM64 320v64h192v-64h-192zM128 448v128h64v-128h-64z" />
    <glyph glyph-name="upsilontonos" unicode="&#x3cd;" 
d="M128 0v256h64v-256h-64zM64 256v64h64v-64h-64zM192 256v64h64v-64h-64zM0 320v64h64v-64h-64zM256 320v64h64v-64h-64zM128 448v128h64v-128h-64z" />
    <glyph glyph-name="omegatonos" unicode="&#x3ce;" 
d="M0 0v64h64v64h64v-128h-128zM192 0v128h64v-64h64v-64h-128zM0 128v192h64v-192h-64zM256 128v192h64v-192h-64zM64 320v64h192v-64h-192zM128 448v128h64v-128h-64z" />
    <glyph glyph-name="betasymbolgreek" unicode="&#x3d0;" 
d="M64 0v64h192v-64h-192zM256 64v128h64v-128h-64zM0 64v448h64v-128h192v-64h-192v-64h192v-64h-192v-128h-64zM256 384v128h64v-128h-64zM64 512v64h192v-64h-192z" />
    <glyph glyph-name="theta1" unicode="&#x3d1;" 
d="M64 0v64h128v-64h-128zM0 64v128h64v-128h-64zM0 320v192h64v-192h-64zM192 64v192h-128v64h128v192h64v-192h64v-64h-64v-192h-64zM64 512v64h128v-64h-128z" />
    <glyph glyph-name="Upsilon1" unicode="&#x3d2;" horiz-adv-x="448" 
d="M128 0v320h64v-320h-64zM64 320v128h64v-128h-64zM192 320v128h64v-128h-64zM0 448v128h64v-128h-64zM256 448v128h128v-64h-64v-64h-64z" />
    <glyph glyph-name="Upsilonacutehooksymbolgreek" unicode="&#x3d3;" horiz-adv-x="512" 
d="M192 0v320h64v-320h-64zM128 320v128h64v-128h-64zM256 320v128h64v-128h-64zM320 448v128h128v-64h-64v-64h-64zM64 448v64h-64v128h64v-64h64v-128h-64z" />
    <glyph glyph-name="Upsilondieresishooksymbolgreek" unicode="&#x3d4;" horiz-adv-x="448" 
d="M128 0v320h64v-320h-64zM64 320v128h64v-128h-64zM192 320v128h64v-128h-64zM0 448v128h64v-128h-64zM256 448v128h128v-64h-64v-64h-64zM64 640v64h64v-64h-64zM192 640v64h64v-64h-64z" />
    <glyph glyph-name="phi1" unicode="&#x3d5;" horiz-adv-x="512" 
d="M0 192v192h64v-192h-64zM192 0v128h-128v64h128v192h64v-192h128v-64h-128v-128h-64zM384 192v192h64v-192h-64zM64 384v64h128v-64h-128zM256 384v64h128v-64h-128z" />
    <glyph glyph-name="omega1" unicode="&#x3d6;" horiz-adv-x="512" 
d="M64 0v64h128v-64h-128zM256 0v64h128v-64h-128zM192 64v128h64v-128h-64zM0 64v256h64v-256h-64zM384 64v256h64v-256h-64zM0 384v64h448v-64h-448z" />
    <glyph glyph-name="Stigmagreek" unicode="&#x3da;" 
d="M128 -64v64h128v-64h-128zM256 0v64h64v-64h-64zM64 64v64h192v-64h-192zM0 128v384h64v-384h-64zM256 448v64h64v-64h-64zM64 512v64h192v-64h-192z" />
    <glyph glyph-name="Digammagreek" unicode="&#x3dc;" 
d="M0 0v576h320v-64h-256v-128h256v-64h-256v-320h-64z" />
    <glyph glyph-name="Koppagreek" unicode="&#x3de;" 
d="M64 0v64h64v-64h-64zM128 64v64h64v-64h-64zM192 128v64h64v-64h-64zM256 192v64h-256v128h64v-64h256v-128h-64zM64 384v64h64v-64h-64zM128 448v64h64v-64h-64zM192 512v64h64v-64h-64z" />
    <glyph glyph-name="Sampigreek" unicode="&#x3e0;" horiz-adv-x="256" 
d="M0 -64v64h64v-64h-64zM64 0v64h64v-64h-64zM128 64v64h-128v64h128v128h-128v64h128v64h64v-384h-64zM64 448v64h64v-64h-64zM0 512v64h64v-64h-64z" />
    <glyph glyph-name="afii10023" unicode="&#x401;" 
d="M0 0v576h320v-64h-256v-192h192v-64h-192v-192h256v-64h-320zM64 640v64h64v-64h-64zM192 640v64h64v-64h-64z" />
    <glyph glyph-name="afii10051" unicode="&#x402;" horiz-adv-x="448" 
d="M192 0v64h128v-64h-128zM320 64v192h64v-192h-64zM64 0v512h-64v64h384v-64h-256v-192h192v-64h-192v-256h-64z" />
    <glyph glyph-name="afii10052" unicode="&#x403;" 
d="M0 0v576h320v-64h-256v-512h-64zM128 640v64h64v-64h-64zM192 704v64h128v-64h-128z" />
    <glyph glyph-name="afii10053" unicode="&#x404;" 
d="M64 0v64h256v-64h-256zM0 64v448h64v-192h192v-64h-192v-192h-64zM64 512v64h256v-64h-256z" />
    <glyph glyph-name="afii10054" unicode="&#x405;" 
d="M0 0v64h256v-64h-256zM256 64v192h64v-192h-64zM64 256v64h192v-64h-192zM0 320v192h64v-192h-64zM64 512v64h256v-64h-256z" />
    <glyph glyph-name="afii10055" unicode="&#x406;" horiz-adv-x="128" 
d="M0 0v576h64v-576h-64z" />
    <glyph glyph-name="afii10056" unicode="&#x407;" horiz-adv-x="256" 
d="M64 0v576h64v-576h-64zM0 640v64h64v-64h-64zM128 640v64h64v-64h-64z" />
    <glyph glyph-name="afii10057" unicode="&#x408;" horiz-adv-x="320" 
d="M0 0v64h192v-64h-192zM192 64v512h64v-512h-64z" />
    <glyph glyph-name="afii10058" unicode="&#x409;" horiz-adv-x="448" 
d="M0 0v64h64v-64h-64zM320 64v192h64v-192h-64zM192 0v512h-64v-448h-64v512h192v-256h64v-64h-64v-192h64v-64h-128z" />
    <glyph glyph-name="afii10059" unicode="&#x40a;" horiz-adv-x="448" 
d="M320 64v192h64v-192h-64zM0 0v576h64v-256h128v256h64v-256h64v-64h-64v-192h64v-64h-128v256h-128v-256h-64z" />
    <glyph glyph-name="afii10060" unicode="&#x40b;" horiz-adv-x="448" 
d="M320 0v256h64v-256h-64zM64 0v512h-64v64h384v-64h-256v-192h192v-64h-192v-256h-64z" />
    <glyph glyph-name="afii10061" unicode="&#x40c;" 
d="M256 0v128h64v-128h-64zM192 128v128h64v-128h-64zM128 256v64h64v-64h-64zM192 320v128h64v-128h-64zM0 0v576h64v-576h-64zM256 448v128h64v-128h-64zM128 640v64h64v-64h-64zM192 704v64h128v-64h-128z" />
    <glyph glyph-name="afii10062" unicode="&#x40e;" 
d="M64 0v64h192v-64h-192zM0 320v256h64v-256h-64zM256 64v192h-192v64h192v256h64v-512h-64zM128 640v64h64v-64h-64zM64 704v64h64v-64h-64zM192 704v64h64v-64h-64z" />
    <glyph glyph-name="afii10145" unicode="&#x40f;" 
d="M128 -128v128h-128v576h64v-512h192v512h64v-576h-128v-128h-64z" />
    <glyph glyph-name="Acyrillic" unicode="&#x410;" 
d="M0 0v512h64v-192h192v192h64v-512h-64v256h-192v-256h-64zM64 512v64h192v-64h-192z" />
    <glyph glyph-name="afii10018" unicode="&#x411;" 
d="M256 64v192h64v-192h-64zM0 0v576h320v-64h-256v-192h192v-64h-192v-192h192v-64h-256z" />
    <glyph glyph-name="afii10019" unicode="&#x412;" 
d="M256 64v192h64v-192h-64zM256 320v192h64v-192h-64zM0 0v576h256v-64h-192v-192h192v-64h-192v-192h192v-64h-256z" />
    <glyph glyph-name="afii10020" unicode="&#x413;" 
d="M0 0v576h320v-64h-256v-512h-64z" />
    <glyph glyph-name="afii10021" unicode="&#x414;" horiz-adv-x="448" 
d="M256 64v448h-128v-448h128zM0 -64v128h64v512h256v-512h64v-128h-64v64h-256v-64h-64z" />
    <glyph glyph-name="afii10022" unicode="&#x415;" 
d="M0 0v576h320v-64h-256v-192h192v-64h-192v-192h256v-64h-320z" />
    <glyph glyph-name="afii10024" unicode="&#x416;" 
d="M0 0v256h64v-256h-64zM256 0v256h64v-256h-64zM0 320v256h64v-256h-64zM128 0v256h-64v64h64v256h64v-256h64v-64h-64v-256h-64zM256 320v256h64v-256h-64z" />
    <glyph glyph-name="afii10025" unicode="&#x417;" 
d="M0 0v64h256v-64h-256zM256 64v192h64v-192h-64zM64 256v64h192v-64h-192zM256 320v192h64v-192h-64zM0 512v64h256v-64h-256z" />
    <glyph glyph-name="afii10026" unicode="&#x418;" 
d="M128 256v128h64v-128h-64zM0 0v576h64v-320h64v-128h-64v-128h-64zM256 0v384h-64v128h64v64h64v-576h-64z" />
    <glyph glyph-name="afii10027" unicode="&#x419;" 
d="M128 256v128h64v-128h-64zM0 0v576h64v-320h64v-128h-64v-128h-64zM256 0v384h-64v128h64v64h64v-576h-64zM128 640v64h64v-64h-64zM64 704v64h64v-64h-64zM192 704v64h64v-64h-64z" />
    <glyph glyph-name="afii10028" unicode="&#x41a;" 
d="M256 0v128h64v-128h-64zM192 128v128h64v-128h-64zM128 256v64h64v-64h-64zM192 320v128h64v-128h-64zM0 0v576h64v-576h-64zM256 448v128h64v-128h-64z" />
    <glyph glyph-name="afii10029" unicode="&#x41b;" 
d="M0 0v64h64v-64h-64zM256 0v512h-128v-448h-64v512h256v-576h-64z" />
    <glyph glyph-name="afii10030" unicode="&#x41c;" horiz-adv-x="448" 
d="M128 384v64h128v-64h-128zM0 0v576h64v-64h64v-64h-64v-448h-64zM320 0v448h-64v64h64v64h64v-576h-64z" />
    <glyph glyph-name="afii10031" unicode="&#x41d;" 
d="M0 0v576h64v-256h192v256h64v-576h-64v256h-192v-256h-64z" />
    <glyph glyph-name="afii10032" unicode="&#x41e;" 
d="M64 0v64h192v-64h-192zM0 64v448h64v-448h-64zM256 64v448h64v-448h-64zM64 512v64h192v-64h-192z" />
    <glyph glyph-name="afii10033" unicode="&#x41f;" 
d="M0 0v576h320v-576h-64v512h-192v-512h-64z" />
    <glyph glyph-name="afii10034" unicode="&#x420;" 
d="M256 320v192h64v-192h-64zM0 0v576h256v-64h-192v-192h192v-64h-192v-256h-64z" />
    <glyph glyph-name="afii10035" unicode="&#x421;" 
d="M64 0v64h256v-64h-256zM0 64v448h64v-448h-64zM64 512v64h256v-64h-256z" />
    <glyph glyph-name="afii10036" unicode="&#x422;" 
d="M128 0v512h-128v64h320v-64h-128v-512h-64z" />
    <glyph glyph-name="afii10037" unicode="&#x423;" 
d="M64 0v64h192v-64h-192zM0 320v256h64v-256h-64zM256 64v192h-192v64h192v256h64v-512h-64z" />
    <glyph glyph-name="afii10038" unicode="&#x424;" 
d="M0 192v192h64v-192h-64zM256 192v192h64v-192h-64zM128 0v128h-64v64h64v192h-64v64h64v128h64v-128h64v-64h-64v-192h64v-64h-64v-128h-64z" />
    <glyph glyph-name="afii10039" unicode="&#x425;" 
d="M0 0v128h64v-128h-64zM256 0v128h64v-128h-64zM64 128v128h64v-128h-64zM192 128v128h64v-128h-64zM128 256v64h64v-64h-64zM64 320v128h64v-128h-64zM192 320v128h64v-128h-64zM0 448v128h64v-128h-64zM256 448v128h64v-128h-64z" />
    <glyph glyph-name="afii10040" unicode="&#x426;" horiz-adv-x="448" 
d="M320 -128v128h-320v576h64v-512h192v512h64v-512h64v-192h-64z" />
    <glyph glyph-name="afii10041" unicode="&#x427;" 
d="M0 320v256h64v-256h-64zM256 0v256h-192v64h192v256h64v-576h-64z" />
    <glyph glyph-name="afii10042" unicode="&#x428;" 
d="M0 0v576h64v-512h64v512h64v-512h64v512h64v-576h-320z" />
    <glyph glyph-name="afii10043" unicode="&#x429;" horiz-adv-x="448" 
d="M320 -128v128h-320v576h64v-512h64v512h64v-512h64v512h64v-512h64v-192h-64z" />
    <glyph glyph-name="afii10044" unicode="&#x42a;" horiz-adv-x="448" 
d="M320 64v192h64v-192h-64zM128 0v512h-128v64h192v-256h128v-64h-128v-192h128v-64h-192z" />
    <glyph glyph-name="afii10045" unicode="&#x42b;" horiz-adv-x="448" 
d="M192 64v192h64v-192h-64zM0 0v576h64v-256h128v-64h-128v-192h128v-64h-192zM320 0v576h64v-576h-64z" />
    <glyph glyph-name="afii10046" unicode="&#x42c;" horiz-adv-x="320" 
d="M192 64v192h64v-192h-64zM0 0v576h64v-256h128v-64h-128v-192h128v-64h-192z" />
    <glyph glyph-name="afii10047" unicode="&#x42d;" 
d="M0 0v64h256v-64h-256zM256 64v192h-192v64h192v192h64v-448h-64zM0 512v64h256v-64h-256z" />
    <glyph glyph-name="afii10048" unicode="&#x42e;" horiz-adv-x="512" 
d="M192 0v64h192v-64h-192zM384 64v448h64v-448h-64zM0 0v576h64v-256h64v192h64v-448h-64v192h-64v-256h-64zM192 512v64h192v-64h-192z" />
    <glyph glyph-name="afii10049" unicode="&#x42f;" 
d="M0 0v192h64v-192h-64zM0 320v192h64v-192h-64zM256 0v256h-128v-64h-64v128h192v192h-192v64h256v-576h-64z" />
    <glyph glyph-name="acyrillic" unicode="&#x430;" 
d="M64 0v64h192v-64h-192zM0 64v128h64v-128h-64zM256 64v128h-192v64h192v64h64v-256h-64zM64 320v64h192v-64h-192z" />
    <glyph glyph-name="afii10066" unicode="&#x431;" 
d="M64 0v64h192v-64h-192zM256 64v256h64v-256h-64zM0 64v448h64v-128h192v-64h-192v-256h-64zM64 512v64h128v-64h-128z" />
    <glyph glyph-name="afii10067" unicode="&#x432;" 
d="M256 64v128h64v-128h-64zM256 256v64h64v-64h-64zM0 0v384h256v-64h-192v-64h192v-64h-192v-128h192v-64h-256z" />
    <glyph glyph-name="afii10068" unicode="&#x433;" 
d="M0 0v384h320v-64h-256v-320h-64z" />
    <glyph glyph-name="afii10069" unicode="&#x434;" horiz-adv-x="448" 
d="M256 64v256h-128v-256h128zM0 -64v128h64v320h256v-320h64v-128h-64v64h-256v-64h-64z" />
    <glyph glyph-name="afii10070" unicode="&#x435;" 
d="M64 0v64h256v-64h-256zM0 64v256h64v-64h192v64h64v-128h-256v-128h-64zM64 320v64h192v-64h-192z" />
    <glyph glyph-name="afii10072" unicode="&#x436;" 
d="M0 0v192h64v-192h-64zM256 0v192h64v-192h-64zM0 256v128h64v-128h-64zM128 0v192h-64v64h64v128h64v-128h64v-64h-64v-192h-64zM256 256v128h64v-128h-64z" />
    <glyph glyph-name="afii10073" unicode="&#x437;" 
d="M0 0v64h256v-64h-256zM256 64v128h64v-128h-64zM64 192v64h192v-64h-192zM256 256v64h64v-64h-64zM0 320v64h256v-64h-256z" />
    <glyph glyph-name="afii10074" unicode="&#x438;" 
d="M128 192v64h64v-64h-64zM0 0v384h64v-192h64v-64h-64v-128h-64zM256 0v256h-64v64h64v64h64v-384h-64z" />
    <glyph glyph-name="afii10075" unicode="&#x439;" 
d="M128 192v64h64v-64h-64zM0 0v384h64v-192h64v-64h-64v-128h-64zM256 0v256h-64v64h64v64h64v-384h-64zM128 448v64h64v-64h-64zM64 512v64h64v-64h-64zM192 512v64h64v-64h-64z" />
    <glyph glyph-name="afii10076" unicode="&#x43a;" 
d="M256 0v64h64v-64h-64zM192 64v64h64v-64h-64zM128 128v128h64v-128h-64zM192 256v64h64v-64h-64zM0 0v384h64v-384h-64zM256 320v64h64v-64h-64z" />
    <glyph glyph-name="afii10077" unicode="&#x43b;" 
d="M0 0v64h64v-64h-64zM256 0v320h-128v-256h-64v320h256v-384h-64z" />
    <glyph glyph-name="afii10078" unicode="&#x43c;" horiz-adv-x="448" 
d="M128 192v64h128v-64h-128zM0 0v384h64v-64h64v-64h-64v-256h-64zM320 0v256h-64v64h64v64h64v-384h-64z" />
    <glyph glyph-name="afii10079" unicode="&#x43d;" 
d="M0 0v384h64v-128h192v128h64v-384h-64v192h-192v-192h-64z" />
    <glyph glyph-name="afii10080" unicode="&#x43e;" 
d="M64 0v64h192v-64h-192zM0 64v256h64v-256h-64zM256 64v256h64v-256h-64zM64 320v64h192v-64h-192z" />
    <glyph glyph-name="afii10081" unicode="&#x43f;" 
d="M0 0v384h320v-384h-64v320h-192v-320h-64z" />
    <glyph glyph-name="afii10082" unicode="&#x440;" 
d="M256 128v192h64v-192h-64zM0 -128v512h256v-64h-192v-192h192v-64h-192v-192h-64z" />
    <glyph glyph-name="afii10083" unicode="&#x441;" 
d="M64 0v64h256v-64h-256zM0 64v256h64v-256h-64zM64 320v64h256v-64h-256z" />
    <glyph glyph-name="afii10084" unicode="&#x442;" 
d="M128 0v320h-128v64h320v-64h-128v-320h-64z" />
    <glyph glyph-name="afii10085" unicode="&#x443;" 
d="M64 -128v64h192v-64h-192zM0 128v256h64v-256h-64zM256 -64v128h-192v64h192v256h64v-448h-64z" />
    <glyph glyph-name="afii10086" unicode="&#x444;" 
d="M0 128v128h64v-128h-64zM256 128v128h64v-128h-64zM128 0v64h-64v64h64v128h-64v64h64v64h64v-64h64v-64h-64v-128h64v-64h-64v-64h-64z" />
    <glyph glyph-name="afii10087" unicode="&#x445;" 
d="M0 0v128h64v-128h-64zM256 0v128h64v-128h-64zM64 128v64h64v-64h-64zM192 128v64h64v-64h-64zM128 192v64h64v-64h-64zM64 256v64h64v-64h-64zM192 256v64h64v-64h-64zM0 320v64h64v-64h-64zM256 320v64h64v-64h-64z" />
    <glyph glyph-name="afii10088" unicode="&#x446;" horiz-adv-x="448" 
d="M320 -128v128h-320v384h64v-320h192v320h64v-320h64v-192h-64z" />
    <glyph glyph-name="afii10089" unicode="&#x447;" 
d="M0 192v192h64v-192h-64zM256 0v128h-192v64h192v192h64v-384h-64z" />
    <glyph glyph-name="afii10090" unicode="&#x448;" 
d="M0 0v384h64v-320h64v320h64v-320h64v320h64v-384h-320z" />
    <glyph glyph-name="afii10091" unicode="&#x449;" horiz-adv-x="448" 
d="M320 -128v128h-320v384h64v-320h64v320h64v-320h64v320h64v-320h64v-192h-64z" />
    <glyph glyph-name="afii10092" unicode="&#x44a;" horiz-adv-x="448" 
d="M320 64v128h64v-128h-64zM128 0v320h-128v64h192v-128h128v-64h-128v-128h128v-64h-192z" />
    <glyph glyph-name="afii10093" unicode="&#x44b;" horiz-adv-x="448" 
d="M192 64v128h64v-128h-64zM0 0v384h64v-128h128v-64h-128v-128h128v-64h-192zM320 0v384h64v-384h-64z" />
    <glyph glyph-name="afii10094" unicode="&#x44c;" horiz-adv-x="320" 
d="M192 64v128h64v-128h-64zM0 0v384h64v-128h128v-64h-128v-128h128v-64h-192z" />
    <glyph glyph-name="afii10095" unicode="&#x44d;" 
d="M0 0v64h256v-64h-256zM256 64v128h-256v64h256v64h64v-256h-64zM0 320v64h256v-64h-256z" />
    <glyph glyph-name="afii10096" unicode="&#x44e;" horiz-adv-x="448" 
d="M192 0v64h128v-64h-128zM320 64v256h64v-256h-64zM0 0v384h64v-128h64v64h64v-256h-64v128h-64v-192h-64zM192 320v64h128v-64h-128z" />
    <glyph glyph-name="afii10097" unicode="&#x44f;" 
d="M0 0v64h64v-64h-64zM0 192v128h64v-128h-64zM256 0v128h-128v-64h-64v128h192v128h-192v64h256v-384h-64z" />
    <glyph glyph-name="afii10071" unicode="&#x451;" 
d="M64 0v64h256v-64h-256zM0 64v256h64v-64h192v64h64v-128h-256v-128h-64zM64 320v64h192v-64h-192zM64 448v64h64v-64h-64zM192 448v64h64v-64h-64z" />
    <glyph glyph-name="afii10099" unicode="&#x452;" 
d="M192 -128v64h64v-64h-64zM256 -64v384h64v-384h-64zM64 0v320h-64v64h64v192h64v-192h128v-64h-128v-320h-64z" />
    <glyph glyph-name="afii10100" unicode="&#x453;" 
d="M0 0v384h320v-64h-256v-320h-64zM128 448v64h64v-64h-64zM192 512v64h128v-64h-128z" />
    <glyph glyph-name="afii10101" unicode="&#x454;" 
d="M64 0v64h256v-64h-256zM0 64v256h64v-64h256v-64h-256v-128h-64zM64 320v64h256v-64h-256z" />
    <glyph glyph-name="afii10102" unicode="&#x455;" 
d="M0 0v64h256v-64h-256zM256 64v128h64v-128h-64zM64 192v64h192v-64h-192zM0 256v64h64v-64h-64zM64 320v64h256v-64h-256z" />
    <glyph glyph-name="afii10103" unicode="&#x456;" horiz-adv-x="128" 
d="M0 0v384h64v-384h-64zM0 512v64h64v-64h-64z" />
    <glyph glyph-name="afii10104" unicode="&#x457;" horiz-adv-x="256" 
d="M64 0v384h64v-384h-64zM0 512v64h64v-64h-64zM128 512v64h64v-64h-64z" />
    <glyph glyph-name="afii10105" unicode="&#x458;" horiz-adv-x="256" 
d="M0 -128v64h128v-64h-128zM128 -64v384h-64v64h128v-448h-64zM128 512v64h64v-64h-64z" />
    <glyph glyph-name="afii10106" unicode="&#x459;" horiz-adv-x="448" 
d="M0 0v64h64v-64h-64zM320 64v128h64v-128h-64zM192 0v320h-64v-256h-64v320h192v-128h64v-64h-64v-128h64v-64h-128z" />
    <glyph glyph-name="afii10107" unicode="&#x45a;" horiz-adv-x="448" 
d="M320 64v128h64v-128h-64zM0 0v384h64v-128h128v128h64v-128h64v-64h-64v-128h64v-64h-128v192h-128v-192h-64z" />
    <glyph glyph-name="afii10108" unicode="&#x45b;" 
d="M256 0v320h64v-320h-64zM64 0v320h-64v64h64v192h64v-192h128v-64h-128v-320h-64z" />
    <glyph glyph-name="afii10109" unicode="&#x45c;" 
d="M256 0v64h64v-64h-64zM192 64v64h64v-64h-64zM128 128v128h64v-128h-64zM192 256v64h64v-64h-64zM0 0v384h64v-384h-64zM256 320v64h64v-64h-64zM128 448v64h64v-64h-64zM192 512v64h128v-64h-128z" />
    <glyph glyph-name="afii10110" unicode="&#x45e;" 
d="M64 -128v64h192v-64h-192zM0 128v256h64v-256h-64zM256 -64v128h-192v64h192v256h64v-448h-64zM128 448v64h64v-64h-64zM64 512v64h64v-64h-64zM192 512v64h64v-64h-64z" />
    <glyph glyph-name="afii10193" unicode="&#x45f;" 
d="M128 -128v128h-128v384h64v-320h192v320h64v-384h-128v-128h-64z" />
    <glyph glyph-name="afii10050" unicode="&#x490;" 
d="M0 0v576h256v64h64v-128h-256v-512h-64z" />
    <glyph glyph-name="afii10098" unicode="&#x491;" 
d="M0 0v384h256v64h64v-128h-256v-320h-64z" />
    <glyph glyph-name="Ghestrokecyrillic" unicode="&#x492;" 
d="M0 0v576h320v-64h-256v-128h192v-64h-192v-320h-64z" />
    <glyph glyph-name="ghestrokecyrillic" unicode="&#x493;" 
d="M0 0v384h320v-64h-256v-64h192v-64h-192v-192h-64z" />
    <glyph glyph-name="Ghemiddlehookcyrillic" unicode="&#x494;" 
d="M128 -64v64h128v-64h-128zM256 0v256h64v-256h-64zM0 0v576h320v-64h-256v-192h192v-64h-192v-256h-64z" />
    <glyph glyph-name="ghemiddlehookcyrillic" unicode="&#x495;" 
d="M128 -64v64h128v-64h-128zM256 0v192h64v-192h-64zM0 0v384h320v-64h-256v-64h192v-64h-192v-192h-64z" />
    <glyph glyph-name="Zhedescendercyrillic" unicode="&#x496;" horiz-adv-x="448" 
d="M0 0v256h64v-256h-64zM320 -128v128h-64v256h64v-192h64v-192h-64zM0 320v256h64v-256h-64zM128 0v256h-64v64h64v256h64v-256h64v-64h-64v-256h-64zM256 320v256h64v-256h-64z" />
    <glyph glyph-name="zhedescendercyrillic" unicode="&#x497;" horiz-adv-x="448" 
d="M0 0v192h64v-192h-64zM320 -128v128h-64v192h64v-128h64v-192h-64zM0 256v128h64v-128h-64zM128 0v192h-64v64h64v128h64v-128h64v-64h-64v-192h-64zM256 256v128h64v-128h-64z" />
    <glyph glyph-name="Zedescendercyrillic" unicode="&#x498;" 
d="M64 -192v64h128v-64h-128zM192 -128v64h64v-64h-64zM128 -64v64h-128v64h256v-64h-64v-64h-64zM256 64v192h64v-192h-64zM64 256v64h192v-64h-192zM256 320v192h64v-192h-64zM0 512v64h256v-64h-256z" />
    <glyph glyph-name="zedescendercyrillic" unicode="&#x499;" 
d="M64 -192v64h128v-64h-128zM192 -128v64h64v-64h-64zM128 -64v64h-128v64h256v-64h-64v-64h-64zM256 64v128h64v-128h-64zM64 192v64h192v-64h-192zM256 256v64h64v-64h-64zM0 320v64h256v-64h-256z" />
    <glyph glyph-name="Kadescendercyrillic" unicode="&#x49a;" horiz-adv-x="448" 
d="M320 -128v128h-64v128h64v-64h64v-192h-64zM192 128v128h64v-128h-64zM128 256v64h64v-64h-64zM192 320v128h64v-128h-64zM0 0v576h64v-576h-64zM256 448v128h64v-128h-64z" />
    <glyph glyph-name="kadescendercyrillic" unicode="&#x49b;" horiz-adv-x="448" 
d="M320 -128v128h-64v64h128v-192h-64zM192 64v64h64v-64h-64zM128 128v128h64v-128h-64zM192 256v64h64v-64h-64zM0 0v384h64v-384h-64zM256 320v64h64v-64h-64z" />
    <glyph glyph-name="Kaverticalstrokecyrillic" unicode="&#x49c;" horiz-adv-x="448" 
d="M320 0v128h64v-128h-64zM256 128v128h64v-128h-64zM128 128v320h64v-128h64v-64h-64v-128h-64zM256 320v128h64v-128h-64zM0 0v576h64v-576h-64zM320 448v128h64v-128h-64z" />
    <glyph glyph-name="kaverticalstrokecyrillic" unicode="&#x49d;" horiz-adv-x="448" 
d="M320 0v64h64v-64h-64zM256 64v64h64v-64h-64zM128 64v256h64v-64h64v-128h-64v-64h-64zM256 256v64h64v-64h-64zM0 0v384h64v-384h-64zM320 320v64h64v-64h-64z" />
    <glyph glyph-name="Kastrokecyrillic" unicode="&#x49e;" 
d="M256 0v128h64v-128h-64zM192 128v128h64v-128h-64zM128 256v64h64v-64h-64zM192 320v128h64v-128h-64zM0 0v448h-64v64h64v64h64v-64h64v-64h-64v-448h-64zM256 448v128h64v-128h-64z" />
    <glyph glyph-name="kastrokecyrillic" unicode="&#x49f;" 
d="M256 0v64h64v-64h-64zM192 64v64h64v-64h-64zM128 128v128h64v-128h-64zM192 256v64h64v-64h-64zM256 320v64h64v-64h-64zM0 0v320h-64v64h64v64h64v-64h64v-64h-64v-320h-64z" />
    <glyph glyph-name="Kabashkircyrillic" unicode="&#x4a0;" 
d="M256 0v128h64v-128h-64zM192 128v128h64v-128h-64zM128 256v64h64v-64h-64zM192 320v128h64v-128h-64zM0 0v512h-64v64h128v-576h-64zM256 448v128h64v-128h-64z" />
    <glyph glyph-name="kabashkircyrillic" unicode="&#x4a1;" 
d="M256 0v64h64v-64h-64zM192 64v64h64v-64h-64zM128 128v128h64v-128h-64zM192 256v64h64v-64h-64zM0 0v320h-64v64h128v-384h-64zM256 320v64h64v-64h-64z" />
    <glyph glyph-name="Endescendercyrillic" unicode="&#x4a2;" horiz-adv-x="448" 
d="M320 -128v128h-64v256h-192v-256h-64v576h64v-256h192v256h64v-512h64v-192h-64z" />
    <glyph glyph-name="endescendercyrillic" unicode="&#x4a3;" horiz-adv-x="448" 
d="M320 -128v128h-64v192h-192v-192h-64v384h64v-128h192v128h64v-320h64v-192h-64z" />
    <glyph glyph-name="Enghecyrillic" unicode="&#x4a4;" horiz-adv-x="448" 
d="M0 0v576h64v-256h128v256h192v-64h-128v-512h-64v256h-128v-256h-64z" />
    <glyph glyph-name="enghecyrillic" unicode="&#x4a5;" horiz-adv-x="448" 
d="M0 0v384h64v-128h128v128h192v-64h-128v-320h-64v192h-128v-192h-64z" />
    <glyph glyph-name="Pemiddlehookcyrillic" unicode="&#x4a6;" horiz-adv-x="512" 
d="M256 -128v64h128v-64h-128zM384 -64v320h64v-320h-64zM0 0v576h256v-256h128v-64h-128v-256h-64v512h-128v-512h-64z" />
    <glyph glyph-name="pemiddlehookcyrillic" unicode="&#x4a7;" horiz-adv-x="512" 
d="M256 -128v64h128v-64h-128zM384 -64v256h64v-256h-64zM0 0v384h256v-128h128v-64h-128v-192h-64v320h-128v-320h-64z" />
    <glyph glyph-name="Haabkhasiancyrillic" unicode="&#x4a8;" horiz-adv-x="448" 
d="M256 -128v64h128v-64h-128zM192 -64v64h-128v64h128v256h64v-256h64v-64h-64v-64h-64zM0 64v448h64v-448h-64zM320 64v256h-64v64h64v128h64v-448h-64zM64 512v64h256v-64h-256z" />
    <glyph glyph-name="haabkhasiancyrillic" unicode="&#x4a9;" horiz-adv-x="448" 
d="M256 -128v64h128v-64h-128zM192 -64v64h-128v64h128v128h64v-128h64v-64h-64v-64h-64zM0 64v256h64v-256h-64zM320 64v128h-64v64h64v64h64v-256h-64zM64 320v64h256v-64h-256z" />
    <glyph glyph-name="Esdescendercyrillic" unicode="&#x4aa;" 
d="M64 -192v64h128v-64h-128zM192 -128v64h64v-64h-64zM128 -64v64h-64v64h256v-64h-128v-64h-64zM0 64v448h64v-448h-64zM64 512v64h256v-64h-256z" />
    <glyph glyph-name="esdescendercyrillic" unicode="&#x4ab;" 
d="M64 -192v64h128v-64h-128zM192 -128v64h64v-64h-64zM128 -64v64h-64v64h256v-64h-128v-64h-64zM0 64v256h64v-256h-64zM64 320v64h256v-64h-256z" />
    <glyph glyph-name="Tedescendercyrillic" unicode="&#x4ac;" 
d="M192 -128v128h-64v512h-128v64h320v-64h-128v-448h64v-192h-64z" />
    <glyph glyph-name="tedescendercyrillic" unicode="&#x4ad;" 
d="M192 -128v128h-64v320h-128v64h320v-64h-128v-256h64v-192h-64z" />
    <glyph glyph-name="Ustraightcyrillic" unicode="&#x4ae;" 
d="M128 0v320h64v-320h-64zM64 320v128h64v-128h-64zM192 320v128h64v-128h-64zM0 448v128h64v-128h-64zM256 448v128h64v-128h-64z" />
    <glyph glyph-name="ustraightcyrillic" unicode="&#x4af;" 
d="M128 0v192h64v-192h-64zM64 192v64h64v-64h-64zM192 192v64h64v-64h-64zM0 256v128h64v-128h-64zM256 256v128h64v-128h-64z" />
    <glyph glyph-name="Ustraightstrokecyrillic" unicode="&#x4b0;" 
d="M128 0v192h-128v64h128v64h64v-64h128v-64h-128v-192h-64zM64 320v128h64v-128h-64zM192 320v128h64v-128h-64zM0 448v128h64v-128h-64zM256 448v128h64v-128h-64z" />
    <glyph glyph-name="ustraightstrokecyrillic" unicode="&#x4b1;" 
d="M128 0v64h-128v64h128v64h64v-64h128v-64h-128v-64h-64zM64 192v64h64v-64h-64zM192 192v64h64v-64h-64zM0 256v128h64v-128h-64zM256 256v128h64v-128h-64z" />
    <glyph glyph-name="Hadescendercyrillic" unicode="&#x4b2;" horiz-adv-x="448" 
d="M0 0v128h64v-128h-64zM320 -128v128h-64v128h64v-64h64v-192h-64zM64 128v128h64v-128h-64zM192 128v128h64v-128h-64zM128 256v64h64v-64h-64zM64 320v128h64v-128h-64zM192 320v128h64v-128h-64zM0 448v128h64v-128h-64zM256 448v128h64v-128h-64z" />
    <glyph glyph-name="hadescendercyrillic" unicode="&#x4b3;" horiz-adv-x="448" 
d="M0 0v128h64v-128h-64zM320 -128v128h-64v128h64v-64h64v-192h-64zM64 128v64h64v-64h-64zM192 128v64h64v-64h-64zM128 192v64h64v-64h-64zM64 256v64h64v-64h-64zM192 256v64h64v-64h-64zM0 320v64h64v-64h-64zM256 320v64h64v-64h-64z" />
    <glyph glyph-name="Tetsecyrillic" unicode="&#x4b4;" horiz-adv-x="512" 
d="M384 -128v128h-320v512h-64v64h192v-64h-64v-448h192v512h64v-512h64v-192h-64z" />
    <glyph glyph-name="tetsecyrillic" unicode="&#x4b5;" horiz-adv-x="512" 
d="M384 -128v128h-320v320h-64v64h192v-64h-64v-256h192v320h64v-320h64v-192h-64z" />
    <glyph glyph-name="Chedescendercyrillic" unicode="&#x4b6;" horiz-adv-x="448" 
d="M0 320v256h64v-256h-64zM320 -128v128h-64v256h-192v64h192v256h64v-512h64v-192h-64z" />
    <glyph glyph-name="chedescendercyrillic" unicode="&#x4b7;" horiz-adv-x="448" 
d="M0 192v192h64v-192h-64zM320 -128v128h-64v128h-192v64h192v192h64v-320h64v-192h-64z" />
    <glyph glyph-name="Cheverticalstrokecyrillic" unicode="&#x4b8;" 
d="M0 320v256h64v-256h-64zM256 0v256h-64v-128h-64v128h-64v64h64v128h64v-128h64v256h64v-576h-64z" />
    <glyph glyph-name="cheverticalstrokecyrillic" unicode="&#x4b9;" 
d="M0 192v192h64v-192h-64zM256 0v128h-64v-64h-64v64h-64v64h64v128h64v-128h64v192h64v-384h-64z" />
    <glyph glyph-name="Shhacyrillic" unicode="&#x4ba;" 
d="M256 0v256h64v-256h-64zM0 0v576h64v-256h192v-64h-192v-256h-64z" />
    <glyph glyph-name="shhacyrillic" unicode="&#x4bb;" 
d="M256 0v192h64v-192h-64zM0 0v384h64v-128h192v-64h-192v-192h-64z" />
    <glyph glyph-name="Cheabkhasiancyrillic" unicode="&#x4bc;" horiz-adv-x="448" 
d="M128 0v64h256v-64h-256zM-64 320v64h64v-64h-64zM64 64v192h-64v64h64v192h64v-192h192v192h64v-256h-256v-192h-64zM128 512v64h192v-64h-192z" />
    <glyph glyph-name="cheabkhasiancyrillic" unicode="&#x4bd;" horiz-adv-x="448" 
d="M128 0v64h256v-64h-256zM64 64v64h-64v64h64v64h64v-64h192v64h64v-128h-256v-64h-64zM128 256v64h192v-64h-192z" />
    <glyph glyph-name="Chedescenderabkhasiancyrillic" unicode="&#x4be;" horiz-adv-x="448" 
d="M192 -192v64h128v-64h-128zM128 -128v64h64v-64h-64zM192 -64v64h-64v64h256v-64h-128v-64h-64zM-64 320v64h64v-64h-64zM64 64v192h-64v64h64v192h64v-192h192v192h64v-256h-256v-192h-64zM128 512v64h192v-64h-192z" />
    <glyph glyph-name="chedescenderabkhasiancyrillic" unicode="&#x4bf;" horiz-adv-x="448" 
d="M192 -192v64h128v-64h-128zM128 -128v64h64v-64h-64zM192 -64v64h-64v64h256v-64h-128v-64h-64zM64 64v64h-64v64h64v64h64v-64h192v64h64v-128h-256v-64h-64zM128 256v64h192v-64h-192z" />
    <glyph glyph-name="palochkacyrillic" unicode="&#x4c0;" horiz-adv-x="128" 
d="M0 0v576h64v-576h-64z" />
    <glyph glyph-name="Zhebrevecyrillic" unicode="&#x4c1;" 
d="M0 0v256h64v-256h-64zM256 0v256h64v-256h-64zM0 320v256h64v-256h-64zM128 0v256h-64v64h64v256h64v-256h64v-64h-64v-256h-64zM256 320v256h64v-256h-64zM128 640v64h64v-64h-64zM64 704v64h64v-64h-64zM192 704v64h64v-64h-64z" />
    <glyph glyph-name="zhebrevecyrillic" unicode="&#x4c2;" 
d="M0 0v192h64v-192h-64zM256 0v192h64v-192h-64zM0 256v128h64v-128h-64zM128 0v192h-64v64h64v128h64v-128h64v-64h-64v-192h-64zM256 256v128h64v-128h-64zM128 448v64h64v-64h-64zM64 512v64h64v-64h-64zM192 512v64h64v-64h-64z" />
    <glyph glyph-name="Kahookcyrillic" unicode="&#x4c3;" 
d="M128 -128v64h128v-64h-128zM256 -64v192h64v-192h-64zM192 128v128h64v-128h-64zM128 256v64h64v-64h-64zM192 320v128h64v-128h-64zM0 0v576h64v-576h-64zM256 448v128h64v-128h-64z" />
    <glyph glyph-name="kahookcyrillic" unicode="&#x4c4;" 
d="M128 -128v64h128v-64h-128zM256 -64v128h64v-128h-64zM192 64v64h64v-64h-64zM128 128v128h64v-128h-64zM192 256v64h64v-64h-64zM0 0v384h64v-384h-64zM256 320v64h64v-64h-64z" />
    <glyph glyph-name="Enhookcyrillic" unicode="&#x4c7;" 
d="M128 -128v64h128v-64h-128zM256 -64v320h-192v-256h-64v576h64v-256h192v256h64v-640h-64z" />
    <glyph glyph-name="enhookcyrillic" unicode="&#x4c8;" 
d="M128 -128v64h128v-64h-128zM256 -64v256h-192v-192h-64v384h64v-128h192v128h64v-448h-64z" />
    <glyph glyph-name="Chekhakassiancyrillic" unicode="&#x4cb;" 
d="M0 320v256h64v-256h-64zM192 -128v192h64v192h-192v64h192v256h64v-576h-64v-128h-64z" />
    <glyph glyph-name="chekhakassiancyrillic" unicode="&#x4cc;" 
d="M0 192v192h64v-192h-64zM192 -128v192h64v64h-192v64h192v192h64v-384h-64v-128h-64z" />
    <glyph glyph-name="Abrevecyrillic" unicode="&#x4d0;" 
d="M0 0v512h64v-192h192v192h64v-512h-64v256h-192v-256h-64zM64 512v64h192v-64h-192z" />
    <glyph glyph-name="abrevecyrillic" unicode="&#x4d1;" 
d="M64 0v64h192v-64h-192zM0 64v128h64v-128h-64zM256 64v128h-192v64h192v64h64v-256h-64zM64 320v64h192v-64h-192zM128 448v64h64v-64h-64zM64 512v64h64v-64h-64zM192 512v64h64v-64h-64z" />
    <glyph glyph-name="Adieresiscyrillic" unicode="&#x4d2;" 
d="M0 0v512h64v-192h192v192h64v-512h-64v256h-192v-256h-64zM64 512v64h192v-64h-192z" />
    <glyph glyph-name="adieresiscyrillic" unicode="&#x4d3;" 
d="M64 0v64h192v-64h-192zM0 64v128h64v-128h-64zM256 64v128h-192v64h192v64h64v-256h-64zM64 320v64h192v-64h-192zM64 448v64h64v-64h-64zM192 448v64h64v-64h-64z" />
    <glyph glyph-name="Aiecyrillic" unicode="&#x4d4;" horiz-adv-x="448" 
d="M0 0v512h64v-192h128v192h-128v64h320v-64h-128v-192h128v-64h-128v-192h128v-64h-192v256h-128v-256h-64z" />
    <glyph glyph-name="aiecyrillic" unicode="&#x4d5;" horiz-adv-x="512" 
d="M64 0v64h128v-64h-128zM256 0v64h192v-64h-192zM0 64v128h64v-128h-64zM192 64v128h-128v64h128v64h64v-64h128v64h64v-128h-192v-128h-64zM64 320v64h128v-64h-128zM256 320v64h128v-64h-128z" />
    <glyph glyph-name="Iebrevecyrillic" unicode="&#x4d6;" 
d="M0 0v576h320v-64h-256v-192h192v-64h-192v-192h256v-64h-320zM128 640v64h64v-64h-64zM64 704v64h64v-64h-64zM192 704v64h64v-64h-64z" />
    <glyph glyph-name="iebrevecyrillic" unicode="&#x4d7;" 
d="M64 0v64h256v-64h-256zM0 64v256h64v-64h192v64h64v-128h-256v-128h-64zM64 320v64h192v-64h-192zM128 448v64h64v-64h-64zM64 512v64h64v-64h-64zM192 512v64h64v-64h-64z" />
    <glyph glyph-name="Schwacyrillic" unicode="&#x4d8;" 
d="M64 0v64h192v-64h-192zM0 448v64h64v-64h-64zM0 64v256h256v192h64v-448h-64v192h-192v-192h-64zM64 512v64h192v-64h-192z" />
    <glyph glyph-name="afii10846" unicode="&#x4d9;" 
d="M64 0v64h192v-64h-192zM0 64v192h256v64h64v-256h-64v128h-192v-128h-64zM0 320v64h256v-64h-256z" />
    <glyph glyph-name="Schwadieresiscyrillic" unicode="&#x4da;" 
d="M64 0v64h192v-64h-192zM0 448v64h64v-64h-64zM0 64v256h256v192h64v-448h-64v192h-192v-192h-64zM64 512v64h192v-64h-192zM64 640v64h64v-64h-64zM192 640v64h64v-64h-64z" />
    <glyph glyph-name="schwadieresiscyrillic" unicode="&#x4db;" 
d="M64 0v64h192v-64h-192zM0 64v192h256v64h64v-256h-64v128h-192v-128h-64zM0 320v64h256v-64h-256zM64 448v64h64v-64h-64zM192 448v64h64v-64h-64z" />
    <glyph glyph-name="Zhedieresiscyrillic" unicode="&#x4dc;" 
d="M0 0v256h64v-256h-64zM256 0v256h64v-256h-64zM0 320v256h64v-256h-64zM128 0v256h-64v64h64v256h64v-256h64v-64h-64v-256h-64zM256 320v256h64v-256h-64zM64 640v64h64v-64h-64zM192 640v64h64v-64h-64z" />
    <glyph glyph-name="zhedieresiscyrillic" unicode="&#x4dd;" 
d="M0 0v192h64v-192h-64zM256 0v192h64v-192h-64zM0 256v128h64v-128h-64zM128 0v192h-64v64h64v128h64v-128h64v-64h-64v-192h-64zM256 256v128h64v-128h-64zM64 448v64h64v-64h-64zM192 448v64h64v-64h-64z" />
    <glyph glyph-name="Zedieresiscyrillic" unicode="&#x4de;" 
d="M0 0v64h256v-64h-256zM256 64v192h64v-192h-64zM64 256v64h192v-64h-192zM256 320v192h64v-192h-64zM0 512v64h256v-64h-256zM64 640v64h64v-64h-64zM192 640v64h64v-64h-64z" />
    <glyph glyph-name="zedieresiscyrillic" unicode="&#x4df;" 
d="M0 0v64h256v-64h-256zM256 64v128h64v-128h-64zM64 192v64h192v-64h-192zM256 256v64h64v-64h-64zM0 320v64h256v-64h-256zM64 448v64h64v-64h-64zM192 448v64h64v-64h-64z" />
    <glyph glyph-name="Dzeabkhasiancyrillic" unicode="&#x4e0;" 
d="M0 0v64h256v-64h-256zM256 64v192h64v-192h-64zM64 256v64h64v64h64v-64h64v-64h-192zM192 384v64h64v-64h-64zM256 448v64h-256v64h320v-128h-64z" />
    <glyph glyph-name="dzeabkhasiancyrillic" unicode="&#x4e1;" 
d="M0 0v64h256v-64h-256zM256 64v64h64v-64h-64zM64 128v64h64v64h64v-64h64v-64h-192zM192 256v64h-192v64h320v-64h-64v-64h-64z" />
    <glyph glyph-name="Imacroncyrillic" unicode="&#x4e2;" 
d="M128 256v128h64v-128h-64zM0 0v576h64v-320h64v-128h-64v-128h-64zM256 0v384h-64v128h64v64h64v-576h-64zM0 640v64h320v-64h-320z" />
    <glyph glyph-name="imacroncyrillic" unicode="&#x4e3;" 
d="M128 192v64h64v-64h-64zM0 0v384h64v-192h64v-64h-64v-128h-64zM256 0v256h-64v64h64v64h64v-384h-64zM0 448v64h320v-64h-320z" />
    <glyph glyph-name="Idieresiscyrillic" unicode="&#x4e4;" 
d="M128 256v128h64v-128h-64zM0 0v576h64v-320h64v-128h-64v-128h-64zM256 0v384h-64v128h64v64h64v-576h-64zM64 640v64h64v-64h-64zM192 640v64h64v-64h-64z" />
    <glyph glyph-name="idieresiscyrillic" unicode="&#x4e5;" 
d="M128 192v64h64v-64h-64zM0 0v384h64v-192h64v-64h-64v-128h-64zM256 0v256h-64v64h64v64h64v-384h-64zM64 448v64h64v-64h-64zM192 448v64h64v-64h-64z" />
    <glyph glyph-name="Odieresiscyrillic" unicode="&#x4e6;" 
d="M64 0v64h192v-64h-192zM0 64v448h64v-448h-64zM256 64v448h64v-448h-64zM64 512v64h192v-64h-192zM64 640v64h64v-64h-64zM192 640v64h64v-64h-64z" />
    <glyph glyph-name="odieresiscyrillic" unicode="&#x4e7;" 
d="M64 0v64h192v-64h-192zM0 64v256h64v-256h-64zM256 64v256h64v-256h-64zM64 320v64h192v-64h-192zM64 448v64h64v-64h-64zM192 448v64h64v-64h-64z" />
    <glyph glyph-name="Obarredcyrillic" unicode="&#x4e8;" 
d="M64 0v64h192v-64h-192zM0 64v448h64v-192h192v192h64v-448h-64v192h-192v-192h-64zM64 512v64h192v-64h-192z" />
    <glyph glyph-name="obarredcyrillic" unicode="&#x4e9;" 
d="M64 0v64h192v-64h-192zM0 64v256h64v-64h192v64h64v-256h-64v128h-192v-128h-64zM64 320v64h192v-64h-192z" />
    <glyph glyph-name="Obarreddieresiscyrillic" unicode="&#x4ea;" 
d="M64 0v64h192v-64h-192zM0 64v448h64v-192h192v192h64v-448h-64v192h-192v-192h-64zM64 512v64h192v-64h-192zM64 640v64h64v-64h-64zM192 640v64h64v-64h-64z" />
    <glyph glyph-name="obarreddieresiscyrillic" unicode="&#x4eb;" 
d="M64 0v64h192v-64h-192zM0 64v256h64v-64h192v64h64v-256h-64v128h-192v-128h-64zM64 320v64h192v-64h-192zM64 448v64h64v-64h-64zM192 448v64h64v-64h-64z" />
    <glyph glyph-name="Umacroncyrillic" unicode="&#x4ee;" 
d="M64 0v64h192v-64h-192zM0 320v256h64v-256h-64zM256 64v192h-192v64h192v256h64v-512h-64zM0 640v64h320v-64h-320z" />
    <glyph glyph-name="umacroncyrillic" unicode="&#x4ef;" 
d="M64 -128v64h192v-64h-192zM0 128v256h64v-256h-64zM256 -64v128h-192v64h192v256h64v-448h-64zM0 448v64h320v-64h-320z" />
    <glyph glyph-name="Udieresiscyrillic" unicode="&#x4f0;" 
d="M64 0v64h192v-64h-192zM0 320v256h64v-256h-64zM256 64v192h-192v64h192v256h64v-512h-64zM64 640v64h64v-64h-64zM192 640v64h64v-64h-64z" />
    <glyph glyph-name="udieresiscyrillic" unicode="&#x4f1;" 
d="M64 -128v64h192v-64h-192zM0 128v256h64v-256h-64zM256 -64v128h-192v64h192v256h64v-448h-64zM64 448v64h64v-64h-64zM192 448v64h64v-64h-64z" />
    <glyph glyph-name="Uhungarumlautcyrillic" unicode="&#x4f2;" 
d="M64 0v64h192v-64h-192zM0 320v256h64v-256h-64zM256 64v192h-192v64h192v256h64v-512h-64zM0 640v64h64v-64h-64zM192 640v64h64v-64h-64zM64 704v64h64v-64h-64zM256 704v64h64v-64h-64z" />
    <glyph glyph-name="uhungarumlautcyrillic" unicode="&#x4f3;" 
d="M64 -128v64h192v-64h-192zM0 128v256h64v-256h-64zM256 -64v128h-192v64h192v256h64v-448h-64zM0 448v64h64v-64h-64zM192 448v64h64v-64h-64zM64 512v64h64v-64h-64zM256 512v64h64v-64h-64z" />
    <glyph glyph-name="Chedieresiscyrillic" unicode="&#x4f4;" 
d="M0 320v256h64v-256h-64zM256 0v256h-192v64h192v256h64v-576h-64z" />
    <glyph glyph-name="chedieresiscyrillic" unicode="&#x4f5;" 
d="M0 192v192h64v-192h-64zM256 0v128h-192v64h192v192h64v-384h-64z" />
    <glyph glyph-name="Yerudieresiscyrillic" unicode="&#x4f8;" horiz-adv-x="448" 
d="M192 64v192h64v-192h-64zM0 0v576h64v-256h128v-64h-128v-192h128v-64h-192zM320 0v576h64v-576h-64zM128 640v64h64v-64h-64zM256 640v64h64v-64h-64z" />
    <glyph glyph-name="yerudieresiscyrillic" unicode="&#x4f9;" horiz-adv-x="448" 
d="M192 64v128h64v-128h-64zM0 0v384h64v-128h128v-64h-128v-128h128v-64h-192zM320 0v384h64v-384h-64zM128 448v64h64v-64h-64zM256 448v64h64v-64h-64z" />
    <glyph glyph-name="emdash" unicode="&#x2014;" horiz-adv-x="448" 
d="M0 256v64h384v-64h-384z" />
    <glyph glyph-name="quoteleft" unicode="&#x2018;" horiz-adv-x="192" 
d="M0 448v128h64v-64h64v-64h-128zM64 576v64h64v-64h-64z" />
    <glyph glyph-name="quoteright" unicode="&#x2019;" horiz-adv-x="192" 
d="M0 448v64h64v-64h-64zM64 512v64h-64v64h128v-128h-64z" />
    <glyph glyph-name="quotesinglbase" unicode="&#x201a;" horiz-adv-x="192" 
d="M0 -128v64h64v-64h-64zM64 -64v64h-64v64h128v-128h-64z" />
    <glyph glyph-name="quoteleftreversed" unicode="&#x201b;" horiz-adv-x="192" 
d="M64 448v64h64v-64h-64zM0 512v128h128v-64h-64v-64h-64z" />
    <glyph glyph-name="quotedblleft" unicode="&#x201c;" 
d="M0 448v128h64v-64h64v-64h-128zM192 448v128h64v-64h64v-64h-128zM64 576v64h64v-64h-64zM256 576v64h64v-64h-64z" />
    <glyph glyph-name="quotedblright" unicode="&#x201d;" 
d="M0 448v64h64v-64h-64zM192 448v64h64v-64h-64zM64 512v64h-64v64h128v-128h-64zM256 512v64h-64v64h128v-128h-64z" />
    <glyph glyph-name="quotedblbase" unicode="&#x201e;" 
d="M0 -128v64h64v-64h-64zM192 -128v64h64v-64h-64zM64 -64v64h-64v64h128v-128h-64zM256 -64v64h-64v64h128v-128h-64z" />
    <glyph glyph-name="dagger" unicode="&#x2020;" horiz-adv-x="256" 
d="M64 256v192h64v-192h-64zM0 448v64h64v-64h-64zM128 448v64h64v-64h-64zM64 512v128h64v-128h-64z" />
    <glyph glyph-name="bullet" unicode="&#x2022;" horiz-adv-x="256" 
d="M0 192v192h192v-192h-192z" />
    <glyph glyph-name="ellipsis" unicode="&#x2026;" 
d="M0 0v128h64v-128h-64zM128 0v128h64v-128h-64zM256 0v128h64v-128h-64z" />
    <glyph glyph-name="guilsinglleft" unicode="&#x2039;" horiz-adv-x="256" 
d="M128 64v64h64v-64h-64zM64 128v64h64v-64h-64zM0 192v64h64v-64h-64zM64 256v64h64v-64h-64zM128 320v64h64v-64h-64z" />
    <glyph glyph-name="guilsinglright" unicode="&#x203a;" horiz-adv-x="256" 
d="M0 64v64h64v-64h-64zM64 128v64h64v-64h-64zM128 192v64h64v-64h-64zM64 256v64h64v-64h-64zM0 320v64h64v-64h-64z" />
    <glyph glyph-name="Euro" unicode="&#x20ac;" horiz-adv-x="320" 
d="M128 0v64h128v-64h-128zM64 64v128h-64v64h64v64h-64v64h64v128h64v-128h64v-64h-64v-64h64v-64h-64v-128h-64zM128 512v64h128v-64h-128z" />
    <glyph glyph-name="bbopomofo" unicode="&#x3105;" horiz-adv-x="448" 
d="M128 0v64h192v-64h-192zM320 64v384h-320v128h64v-64h320v-448h-64z" />
    <glyph glyph-name="pbopomofo" unicode="&#x3106;" horiz-adv-x="448" 
d="M0 0v64h128v-64h-128zM320 0v64h64v-64h-64zM128 64v64h64v-64h-64zM256 64v64h64v-64h-64zM192 128v64h64v-64h-64zM128 192v64h64v-64h-64zM64 256v64h64v-64h-64zM256 192v128h64v-128h-64zM320 320v128h-320v128h64v-64h320v-192h-64z" />
    <glyph glyph-name="mbopomofo" unicode="&#x3107;" horiz-adv-x="448" 
d="M0 0v512h384v-512h-64v448h-256v-448h-64z" />
    <glyph glyph-name="fbopomofo" unicode="&#x3108;" horiz-adv-x="448" 
d="M0 0v512h384v-64h-320v-384h320v-64h-384z" />
    <glyph glyph-name="dbopomofo" unicode="&#x3109;" horiz-adv-x="448" 
d="M0 0v64h64v-64h-64zM192 0v64h128v-64h-128zM64 64v192h64v-192h-64zM320 64v384h-128v-192h-64v192h-128v128h64v-64h320v-448h-64z" />
    <glyph glyph-name="tbopomofo" unicode="&#x310a;" horiz-adv-x="448" 
d="M320 -64v64h-320v128h64v-64h256v128h64v-256h-64zM64 128v192h64v-192h-64zM128 320v128h-128v64h128v64h64v-64h192v-64h-192v-128h-64z" />
    <glyph glyph-name="nbopomofo" unicode="&#x310b;" horiz-adv-x="448" 
d="M192 0v64h128v-64h-128zM320 64v320h-192v128h-128v64h192v-128h192v-384h-64z" />
    <glyph glyph-name="lbopomofo" unicode="&#x310c;" horiz-adv-x="448" 
d="M0 0v64h64v-64h-64zM192 0v64h128v-64h-128zM64 64v192h64v-192h-64zM320 64v384h-128v-192h-64v192h-128v128h64v-64h128v64h64v-64h128v-448h-64z" />
    <glyph glyph-name="gbopomofo" unicode="&#x310d;" horiz-adv-x="448" 
d="M128 0v128h64v-128h-64zM320 0v128h64v-128h-64zM64 128v128h64v-128h-64zM256 128v128h64v-128h-64zM0 256v64h64v-64h-64zM192 256v64h64v-64h-64zM64 320v128h64v-128h-64zM256 320v128h64v-128h-64zM128 448v128h64v-128h-64zM320 448v128h64v-128h-64z" />
    <glyph glyph-name="kbopomofo" unicode="&#x310e;" horiz-adv-x="448" 
d="M192 0v64h128v-64h-128zM320 64v192h-192v192h-128v64h384v-64h-192v-128h192v-256h-64z" />
    <glyph glyph-name="hbopomofo" unicode="&#x310f;" horiz-adv-x="448" 
d="M64 0v448h-64v64h384v-64h-256v-448h-64z" />
    <glyph glyph-name="jbopomofo" unicode="&#x3110;" 
d="M0 256v256h64v-192h64v-64h-128zM256 0v320h-128v64h128v192h64v-576h-64z" />
    <glyph glyph-name="qbopomofo" unicode="&#x3111;" 
d="M256 0v64h64v-64h-64zM192 64v64h64v-64h-64zM128 128v64h64v-64h-64zM64 192v64h64v-64h-64zM0 256v64h64v-64h-64zM64 320v64h64v-64h-64zM128 384v64h64v-64h-64zM192 448v64h64v-64h-64zM256 512v64h64v-64h-64z" />
    <glyph glyph-name="xbopomofo" unicode="&#x3112;" horiz-adv-x="512" 
d="M192 0v448h-192v64h448v-64h-192v-448h-64z" />
    <glyph glyph-name="zhbopomofo" unicode="&#x3113;" horiz-adv-x="512" 
d="M0 0v64h192v192h-192v256h64v-192h128v256h64v-256h128v192h64v-256h-192v-192h192v-64h-448z" />
    <glyph glyph-name="chbopomofo" unicode="&#x3114;" horiz-adv-x="448" 
d="M0 128v64h64v-64h-64zM64 192v64h64v-64h-64zM64 320v64h64v-64h-64zM192 0v256h-64v64h64v64h64v-384h-64zM128 384v64h64v-64h-64zM256 384v64h64v-64h-64zM192 448v64h64v-64h-64zM320 448v64h64v-64h-64zM256 512v64h64v-64h-64z" />
    <glyph glyph-name="shbopomofo" unicode="&#x3115;" horiz-adv-x="448" 
d="M0 0v64h64v-64h-64zM320 384v64h-192v-64h192zM64 64v448h320v-192h-256v-256h-64z" />
    <glyph glyph-name="rbopomofo" unicode="&#x3116;" horiz-adv-x="448" 
d="M128 256v64h128v-64h-128zM320 64v384h-256v-384h256zM0 -64v576h384v-576h-64v64h-256v-64h-64z" />
    <glyph glyph-name="zbopomofo" unicode="&#x3117;" horiz-adv-x="448" 
d="M256 192v64h64v-64h-64zM128 0v448h-128v64h384v-256h-64v192h-128v-448h-64z" />
    <glyph glyph-name="cbopomofo" unicode="&#x3118;" horiz-adv-x="448" 
d="M192 0v64h64v-64h-64zM256 64v64h64v-64h-64zM320 128v64h-256v192h64v-128h256v-128h-64zM128 384v64h-128v64h128v64h64v-64h192v-64h-192v-64h-64z" />
    <glyph glyph-name="sbopomofo" unicode="&#x3119;" horiz-adv-x="448" 
d="M320 -64v64h-320v192h64v-128h256v128h64v-256h-64zM64 192v192h64v-192h-64zM128 384v192h64v-192h-64z" />
    <glyph glyph-name="abopomofo" unicode="&#x311a;" horiz-adv-x="448" 
d="M192 0v320h64v-320h-64zM64 320v128h64v-128h-64zM256 320v128h64v-128h-64zM0 448v128h64v-128h-64zM320 448v128h64v-128h-64z" />
    <glyph glyph-name="obopomofo" unicode="&#x311b;" horiz-adv-x="448" 
d="M64 0v64h256v-64h-256zM0 64v192h64v-192h-64zM320 64v192h64v-192h-64zM64 256v64h64v128h-128v64h384v-64h-192v-192h-128z" />
    <glyph glyph-name="ebopomofo" unicode="&#x311c;" horiz-adv-x="448" 
d="M64 0v64h256v-64h-256zM0 64v192h64v-192h-64zM320 64v192h64v-192h-64zM64 256v64h64v64h-128v64h128v128h64v-128h192v-64h-192v-128h-128z" />
    <glyph glyph-name="ehbopomofo" unicode="&#x311d;" horiz-adv-x="448" 
d="M128 0v64h256v-64h-256zM64 64v384h-64v64h64v64h64v-64h128v64h64v-64h64v-64h-64v-192h-64v192h-128v-384h-64z" />
    <glyph glyph-name="aibopomofo" unicode="&#x311e;" horiz-adv-x="448" 
d="M256 0v64h64v-64h-64zM64 0v128h64v-128h-64zM128 128v128h64v-128h-64zM320 64v256h64v-256h-64zM192 256v64h-192v128h64v-64h128v128h-192v64h384v-64h-128v-128h64v-64h-64v-64h-64z" />
    <glyph glyph-name="eibopomofo" unicode="&#x311f;" horiz-adv-x="448" 
d="M320 0v128h64v-128h-64zM256 128v128h64v-128h-64zM192 256v128h64v-128h-64zM0 384v128h64v-128h-64zM128 384v128h64v-128h-64zM64 512v64h64v-64h-64z" />
    <glyph glyph-name="aubopomofo" unicode="&#x3120;" horiz-adv-x="448" 
d="M320 -64v64h-256v128h64v-64h192v128h64v-256h-64zM128 128v192h64v-192h-64zM0 320v128h64v-64h64v-64h-128zM192 320v192h64v-192h-64zM64 448v128h64v-128h-64z" />
    <glyph glyph-name="oubopomofo" unicode="&#x3121;" horiz-adv-x="448" 
d="M0 0v64h128v-64h-128zM320 0v64h64v-64h-64zM128 64v64h64v-64h-64zM256 64v64h64v-64h-64zM192 128v64h64v-64h-64zM128 192v64h64v-64h-64zM64 256v64h64v-64h-64zM256 192v128h64v-128h-64zM320 320v128h-320v64h384v-192h-64z" />
    <glyph glyph-name="anbopomofo" unicode="&#x3122;" horiz-adv-x="448" 
d="M192 0v64h64v-64h-64zM256 64v64h64v-64h-64zM320 128v128h-320v128h64v-64h320v-192h-64zM320 384v64h-320v64h384v-128h-64z" />
    <glyph glyph-name="enbopomofo" unicode="&#x3123;" horiz-adv-x="448" 
d="M128 0v64h64v-64h-64zM192 64v64h64v-64h-64zM256 128v128h64v-128h-64zM320 256v64h-320v192h64v-128h320v-128h-64z" />
    <glyph glyph-name="angbopomofo" unicode="&#x3124;" horiz-adv-x="448" 
d="M0 0v64h64v-64h-64zM64 64v192h64v-192h-64zM192 0v256h-64v192h-128v64h128v64h64v-64h192v-64h-192v-128h64v-256h128v-64h-192z" />
    <glyph glyph-name="engbopomofo" unicode="&#x3125;" horiz-adv-x="448" 
d="M0 0v192h64v-128h320v-64h-384zM64 192v192h64v-192h-64zM128 384v128h64v-128h-64z" />
    <glyph glyph-name="erbopomofo" unicode="&#x3126;" horiz-adv-x="448" 
d="M0 0v64h64v-64h-64zM64 64v448h64v-448h-64zM192 0v512h64v-448h128v-64h-192z" />
    <glyph glyph-name="ibopomofo" unicode="&#x3127;" horiz-adv-x="448" 
d="M0 256v64h384v-64h-384z" />
    <glyph glyph-name="ubopomofo" unicode="&#x3128;" horiz-adv-x="448" 
d="M0 0v64h64v-64h-64zM64 64v64h64v-64h-64zM320 0v128h64v-128h-64zM256 128v64h64v-64h-64zM64 320v64h64v-64h-64zM128 128v192h64v64h64v-192h-64v-64h-64zM0 384v128h64v-128h-64zM256 384v128h64v-128h-64zM320 512v64h64v-64h-64z" />
    <glyph glyph-name="iubopomofo" unicode="&#x3129;" horiz-adv-x="448" 
d="M0 0v512h64v-448h256v448h64v-512h-384z" />
    <glyph glyph-name="fi" unicode="&#xfb01;" 
d="M64 0v320h-64v64h64v128h64v-128h192v-384h-64v320h-128v-320h-64zM128 512v64h128v-64h-128z" />
    <glyph glyph-name="fl" unicode="&#xfb02;" 
d="M64 0v320h-64v64h64v128h64v-128h64v-64h-64v-320h-64zM256 0v512h-128v64h192v-576h-64z" />
  </font>
</defs>
</svg>
